<svg width="86" height="65" viewBox="0 0 86 65" fill="none" xmlns="http://www.w3.org/2000/svg">
<mask id="path-1-outside-1_63740_195" maskUnits="userSpaceOnUse" x="-0.0336914" y="-0.0227051" width="86" height="65" fill="black">
<rect fill="white" x="-0.0336914" y="-0.0227051" width="86" height="65"/>
<path d="M25.4947 62.2557C20.6084 62.2368 16.4038 61.0341 12.8811 58.6477C9.37729 56.2614 6.67843 52.8049 4.78449 48.2784C2.90949 43.7519 1.98146 38.3068 2.0004 31.9432C2.0004 25.5985 2.9379 20.1913 4.8129 15.7216C6.70684 11.2519 9.4057 7.85229 12.9095 5.52275C16.4322 3.17426 20.6273 2.00002 25.4947 2.00002C30.3621 2.00002 34.5478 3.17426 38.0515 5.52275C41.5743 7.87123 44.2826 11.2803 46.1765 15.75C48.0705 20.2008 49.008 25.5985 48.989 31.9432C48.989 38.3258 48.0421 43.7803 46.1481 48.3068C44.2731 52.8334 41.5837 56.2898 38.0799 58.6762C34.5762 61.0625 30.3811 62.2557 25.4947 62.2557ZM25.4947 52.0568C28.8281 52.0568 31.489 50.3807 33.4777 47.0284C35.4663 43.6762 36.4512 38.6477 36.4322 31.9432C36.4322 27.5303 35.9777 23.8561 35.0686 20.9205C34.1784 17.9849 32.9095 15.7784 31.2618 14.3012C29.633 12.8239 27.7106 12.0852 25.4947 12.0852C22.1803 12.0852 19.5288 13.7424 17.5402 17.0568C15.5515 20.3712 14.5477 25.3334 14.5288 31.9432C14.5288 36.4129 14.9739 40.144 15.864 43.1364C16.7731 46.1099 18.0515 48.3447 19.6993 49.8409C21.347 51.3182 23.2788 52.0568 25.4947 52.0568ZM83.0728 2.79548V60.9773H70.7717V14.4716H70.4308L57.1069 22.8239V11.9148L71.5103 2.79548H83.0728Z"/>
</mask>
<path d="M25.4947 62.2557L25.487 64.2557H25.4947V62.2557ZM12.8811 58.6478L11.7552 60.3008L11.7594 60.3036L12.8811 58.6478ZM4.78449 48.2784L2.93673 49.0438L2.93948 49.0504L4.78449 48.2784ZM2.0004 31.9432L4.0004 31.9492V31.9432H2.0004ZM4.8129 15.7216L2.97138 14.9413L2.9686 14.9479L4.8129 15.7216ZM12.9095 5.52275L14.0168 7.18824L14.0189 7.18685L12.9095 5.52275ZM38.0515 5.52275L36.938 7.18409L36.9421 7.18685L38.0515 5.52275ZM46.1765 15.75L44.335 16.5303L44.3362 16.5331L46.1765 15.75ZM48.989 31.9432L46.989 31.9372V31.9432H48.989ZM46.1481 48.3068L44.3031 47.5349L44.3004 47.5415L46.1481 48.3068ZM38.0799 58.6762L39.2058 60.3292L38.0799 58.6762ZM33.4777 47.0284L35.1978 48.0488L33.4777 47.0284ZM36.4322 31.9432H34.4322L34.4322 31.9489L36.4322 31.9432ZM35.0686 20.9205L33.1546 21.5008L33.1581 21.5121L35.0686 20.9205ZM31.2618 14.3012L29.9181 15.7826L29.9267 15.7903L31.2618 14.3012ZM17.5402 17.0568L15.8252 16.0278H15.8252L17.5402 17.0568ZM14.5288 31.9432L12.5288 31.9375V31.9432H14.5288ZM15.864 43.1364L13.9471 43.7066L13.9492 43.7139L13.9514 43.7211L15.864 43.1364ZM19.6993 49.8409L18.3547 51.3216L18.3642 51.3301L19.6993 49.8409ZM25.4947 62.2557L25.5025 60.2557C20.9527 60.2381 17.1497 59.1237 14.0028 56.9919L12.8811 58.6478L11.7594 60.3036C15.6579 62.9445 20.264 64.2354 25.487 64.2557L25.4947 62.2557ZM12.8811 58.6478L14.0069 56.9947C10.871 54.8589 8.39811 51.7334 6.6295 47.5065L4.78449 48.2784L2.93948 49.0504C4.95875 53.8765 7.88359 57.6639 11.7552 60.3008L12.8811 58.6478ZM4.78449 48.2784L6.63224 47.513C4.88388 43.2922 3.98201 38.1236 4.00039 31.9492L2.0004 31.9432L0.000408411 31.9373C-0.019094 38.4901 0.935106 44.2116 2.93674 49.0438L4.78449 48.2784ZM2.0004 31.9432H4.0004C4.0004 25.786 4.9114 20.657 6.6572 16.4953L4.8129 15.7216L2.9686 14.9479C0.964398 19.7256 0.00039959 25.411 0.00039959 31.9432H2.0004ZM4.8129 15.7216L6.6544 16.5019C8.41966 12.3359 10.887 9.26911 14.0168 7.18823L12.9095 5.52275L11.8022 3.85727C7.92437 6.43547 4.99402 10.1679 2.9714 14.9413L4.8129 15.7216ZM12.9095 5.52275L14.0189 7.18685C17.1659 5.08883 20.9614 4.00002 25.4947 4.00002V2.00002V1.90735e-05C20.2932 1.90735e-05 15.6985 1.2597 11.8001 3.85865L12.9095 5.52275ZM25.4947 2.00002V4.00002C30.0283 4.00002 33.8121 5.0889 36.938 7.18408L38.0515 5.52275L39.1651 3.86142C35.2834 1.25962 30.6959 1.90735e-05 25.4947 1.90735e-05V2.00002ZM38.0515 5.52275L36.9421 7.18685C40.094 9.28808 42.5706 12.3662 44.335 16.5303L46.1765 15.75L48.018 14.9697C45.9946 10.1944 43.0545 6.45438 39.1609 3.85865L38.0515 5.52275ZM46.1765 15.75L44.3362 16.5331C46.0965 20.6697 47.0074 25.7832 46.989 31.9372L48.989 31.9432L50.989 31.9492C51.0085 25.4138 50.0445 19.7319 48.0168 14.9669L46.1765 15.75ZM48.989 31.9432H46.989C46.989 38.1368 46.069 43.3144 44.3031 47.5349L46.1481 48.3068L47.9931 49.0788C50.0151 44.2463 50.989 38.5148 50.989 31.9432H48.989ZM46.1481 48.3068L44.3004 47.5415C42.5507 51.7655 40.0882 54.8886 36.9541 57.0231L38.0799 58.6762L39.2058 60.3292C43.0793 57.691 45.9956 53.9012 47.9959 49.0722L46.1481 48.3068ZM38.0799 58.6762L36.9541 57.0231C33.8309 59.1503 30.0426 60.2557 25.4947 60.2557V62.2557V64.2557C30.7196 64.2557 35.3215 62.9747 39.2058 60.3292L38.0799 58.6762ZM25.4947 52.0568V54.0568C29.6651 54.0568 32.9211 51.8866 35.1978 48.0488L33.4777 47.0284L31.7576 46.008C30.0569 48.8748 27.991 50.0568 25.4947 50.0568V52.0568ZM33.4777 47.0284L35.1978 48.0488C37.4598 44.2357 38.4515 38.775 38.4322 31.9376L36.4322 31.9432L34.4322 31.9489C34.4508 38.5205 33.4728 43.1166 31.7576 46.008L33.4777 47.0284ZM36.4322 31.9432H38.4322C38.4322 27.4093 37.9672 23.5195 36.9791 20.3288L35.0686 20.9205L33.1581 21.5121C33.9882 24.1926 34.4322 27.6514 34.4322 31.9432H36.4322ZM35.0686 20.9205L36.9825 20.3401C36.0255 17.1839 34.6027 14.6104 32.5969 12.812L31.2618 14.3012L29.9267 15.7903C31.2163 16.9465 32.3314 18.7859 33.1546 21.5008L35.0686 20.9205ZM31.2618 14.3012L32.6054 12.8197C30.6055 11.0059 28.2031 10.0853 25.4947 10.0853V12.0853V14.0853C27.2181 14.0853 28.6604 14.6419 29.9181 15.7826L31.2618 14.3012ZM25.4947 12.0853V10.0853C21.3499 10.0853 18.1042 12.2295 15.8252 16.0278L17.5402 17.0568L19.2552 18.0858C20.9534 15.2554 23.0107 14.0853 25.4947 14.0853V12.0853ZM17.5402 17.0568L15.8252 16.0278C13.562 19.7998 12.5481 25.1922 12.5288 31.9375L14.5288 31.9432L16.5288 31.9489C16.5474 25.4745 17.5411 20.9427 19.2552 18.0858L17.5402 17.0568ZM14.5288 31.9432H12.5288C12.5288 36.5302 12.9838 40.4683 13.9471 43.7066L15.864 43.1364L17.781 42.5661C16.964 39.8196 16.5288 36.2956 16.5288 31.9432H14.5288ZM15.864 43.1364L13.9514 43.7211C14.9259 46.9086 16.355 49.5057 18.3548 51.3216L19.6993 49.8409L21.0438 48.3603C19.7481 47.1837 18.6203 45.3111 17.7766 42.5516L15.864 43.1364ZM19.6993 49.8409L18.3642 51.3301C20.3793 53.1368 22.7868 54.0568 25.4947 54.0568V52.0568V50.0568C23.7709 50.0568 22.3146 49.4996 21.0344 48.3518L19.6993 49.8409ZM83.0728 2.79548H85.0728V0.795475H83.0728V2.79548ZM83.0728 60.9773V62.9773H85.0728V60.9773H83.0728ZM70.7717 60.9773H68.7717V62.9773H70.7717V60.9773ZM70.7717 14.4716H72.7717V12.4716H70.7717V14.4716ZM70.4308 14.4716V12.4716H69.8558L69.3685 12.777L70.4308 14.4716ZM57.1069 22.8239H55.1069V26.4381L58.1692 24.5185L57.1069 22.8239ZM57.1069 11.9148L56.0371 10.225L55.1069 10.8139V11.9148H57.1069ZM71.5103 2.79548V0.795475H70.9304L70.4405 1.10569L71.5103 2.79548ZM83.0728 2.79548H81.0728V60.9773H83.0728H85.0728V2.79548H83.0728ZM83.0728 60.9773V58.9773H70.7717V60.9773V62.9773H83.0728V60.9773ZM70.7717 60.9773H72.7717V14.4716H70.7717H68.7717V60.9773H70.7717ZM70.7717 14.4716V12.4716H70.4308V14.4716V16.4716H70.7717V14.4716ZM70.4308 14.4716L69.3685 12.777L56.0447 21.1293L57.1069 22.8239L58.1692 24.5185L71.4931 16.1662L70.4308 14.4716ZM57.1069 22.8239H59.1069V11.9148H57.1069H55.1069V22.8239H57.1069ZM57.1069 11.9148L58.1768 13.6046L72.5802 4.48526L71.5103 2.79548L70.4405 1.10569L56.0371 10.225L57.1069 11.9148ZM71.5103 2.79548V4.79548H83.0728V2.79548V0.795475H71.5103V2.79548Z" fill="#C3D9D9" mask="url(#path-1-outside-1_63740_195)"/>
</svg>
