<svg width="102" height="65" viewBox="0 0 102 65" fill="none" xmlns="http://www.w3.org/2000/svg">
<mask id="path-1-outside-1_63740_65" maskUnits="userSpaceOnUse" x="-0.0336914" y="-0.0227051" width="102" height="65" fill="black">
<rect fill="white" x="-0.0336914" y="-0.0227051" width="102" height="65"/>
<path d="M25.4947 62.2557C20.6084 62.2368 16.4038 61.0341 12.8811 58.6477C9.37729 56.2614 6.67843 52.8049 4.78449 48.2784C2.90949 43.7519 1.98146 38.3068 2.0004 31.9432C2.0004 25.5985 2.9379 20.1913 4.8129 15.7216C6.70684 11.2519 9.4057 7.85229 12.9095 5.52275C16.4322 3.17426 20.6273 2.00002 25.4947 2.00002C30.3621 2.00002 34.5478 3.17426 38.0515 5.52275C41.5743 7.87123 44.2826 11.2803 46.1765 15.75C48.0705 20.2008 49.008 25.5985 48.989 31.9432C48.989 38.3258 48.0421 43.7803 46.1481 48.3068C44.2731 52.8334 41.5837 56.2898 38.0799 58.6762C34.5762 61.0625 30.3811 62.2557 25.4947 62.2557ZM25.4947 52.0568C28.8281 52.0568 31.489 50.3807 33.4777 47.0284C35.4663 43.6762 36.4512 38.6477 36.4322 31.9432C36.4322 27.5303 35.9777 23.8561 35.0686 20.9205C34.1784 17.9849 32.9095 15.7784 31.2618 14.3012C29.633 12.8239 27.7106 12.0852 25.4947 12.0852C22.1803 12.0852 19.5288 13.7424 17.5402 17.0568C15.5515 20.3712 14.5477 25.3334 14.5288 31.9432C14.5288 36.4129 14.9739 40.144 15.864 43.1364C16.7731 46.1099 18.0515 48.3447 19.6993 49.8409C21.347 51.3182 23.2788 52.0568 25.4947 52.0568ZM57.7603 60.9773V52.1137L78.4706 32.9375C80.2319 31.233 81.7092 29.6989 82.9024 28.3352C84.1145 26.9716 85.0331 25.6364 85.6581 24.3296C86.2831 23.0038 86.5956 21.5739 86.5956 20.0398C86.5956 18.3352 86.2073 16.8674 85.4308 15.6364C84.6543 14.3864 83.5937 13.4299 82.249 12.7671C80.9043 12.0852 79.3797 11.7443 77.6751 11.7443C75.8948 11.7443 74.3418 12.1042 73.016 12.8239C71.6903 13.5436 70.6675 14.5758 69.9478 15.9205C69.2281 17.2652 68.8683 18.8656 68.8683 20.7216H57.1922C57.1922 16.9148 58.0539 13.6099 59.7774 10.8068C61.5009 8.00381 63.9156 5.83525 67.0217 4.30116C70.1278 2.76707 73.7073 2.00002 77.7603 2.00002C81.927 2.00002 85.5539 2.73866 88.641 4.21593C91.7471 5.67426 94.1619 7.70078 95.8853 10.2955C97.6088 12.8902 98.4706 15.8637 98.4706 19.2159C98.4706 21.4129 98.035 23.5815 97.1638 25.7216C96.3115 27.8618 94.7869 30.2387 92.5899 32.8523C90.3929 35.447 87.2963 38.5625 83.3001 42.1989L74.8058 50.5227V50.9205H99.2376V60.9773H57.7603Z"/>
</mask>
<path d="M25.4947 62.2557L25.487 64.2557H25.4947V62.2557ZM12.8811 58.6478L11.7552 60.3008L11.7594 60.3036L12.8811 58.6478ZM4.78449 48.2784L2.93673 49.0438L2.93948 49.0504L4.78449 48.2784ZM2.0004 31.9432L4.0004 31.9492V31.9432H2.0004ZM4.8129 15.7216L2.97138 14.9413L2.9686 14.9479L4.8129 15.7216ZM12.9095 5.52275L14.0168 7.18824L14.0189 7.18685L12.9095 5.52275ZM38.0515 5.52275L36.938 7.18409L36.9421 7.18685L38.0515 5.52275ZM46.1765 15.75L44.335 16.5303L44.3362 16.5331L46.1765 15.75ZM48.989 31.9432L46.989 31.9372V31.9432H48.989ZM46.1481 48.3068L44.3031 47.5349L44.3004 47.5415L46.1481 48.3068ZM38.0799 58.6762L39.2058 60.3292L38.0799 58.6762ZM33.4777 47.0284L35.1978 48.0488L33.4777 47.0284ZM36.4322 31.9432H34.4322L34.4322 31.9489L36.4322 31.9432ZM35.0686 20.9205L33.1546 21.5008L33.1581 21.5121L35.0686 20.9205ZM31.2618 14.3012L29.9181 15.7826L29.9267 15.7903L31.2618 14.3012ZM17.5402 17.0568L15.8252 16.0278H15.8252L17.5402 17.0568ZM14.5288 31.9432L12.5288 31.9375V31.9432H14.5288ZM15.864 43.1364L13.9471 43.7066L13.9492 43.7139L13.9514 43.7211L15.864 43.1364ZM19.6993 49.8409L18.3547 51.3216L18.3642 51.3301L19.6993 49.8409ZM25.4947 62.2557L25.5025 60.2557C20.9527 60.2381 17.1497 59.1237 14.0028 56.9919L12.8811 58.6478L11.7594 60.3036C15.6579 62.9445 20.264 64.2354 25.487 64.2557L25.4947 62.2557ZM12.8811 58.6478L14.0069 56.9947C10.871 54.8589 8.39811 51.7334 6.6295 47.5065L4.78449 48.2784L2.93948 49.0504C4.95875 53.8765 7.88359 57.6639 11.7552 60.3008L12.8811 58.6478ZM4.78449 48.2784L6.63224 47.513C4.88388 43.2922 3.98201 38.1236 4.00039 31.9492L2.0004 31.9432L0.000408411 31.9373C-0.019094 38.4901 0.935106 44.2116 2.93674 49.0438L4.78449 48.2784ZM2.0004 31.9432H4.0004C4.0004 25.786 4.9114 20.657 6.6572 16.4953L4.8129 15.7216L2.9686 14.9479C0.964398 19.7256 0.00039959 25.411 0.00039959 31.9432H2.0004ZM4.8129 15.7216L6.6544 16.5019C8.41966 12.3359 10.887 9.26911 14.0168 7.18823L12.9095 5.52275L11.8022 3.85727C7.92437 6.43547 4.99402 10.1679 2.9714 14.9413L4.8129 15.7216ZM12.9095 5.52275L14.0189 7.18685C17.1659 5.08883 20.9614 4.00002 25.4947 4.00002V2.00002V1.90735e-05C20.2932 1.90735e-05 15.6985 1.2597 11.8001 3.85865L12.9095 5.52275ZM25.4947 2.00002V4.00002C30.0283 4.00002 33.8121 5.0889 36.938 7.18408L38.0515 5.52275L39.1651 3.86142C35.2834 1.25962 30.6959 1.90735e-05 25.4947 1.90735e-05V2.00002ZM38.0515 5.52275L36.9421 7.18685C40.094 9.28808 42.5706 12.3662 44.335 16.5303L46.1765 15.75L48.018 14.9697C45.9946 10.1944 43.0545 6.45438 39.1609 3.85865L38.0515 5.52275ZM46.1765 15.75L44.3362 16.5331C46.0965 20.6697 47.0074 25.7832 46.989 31.9372L48.989 31.9432L50.989 31.9492C51.0085 25.4138 50.0445 19.7319 48.0168 14.9669L46.1765 15.75ZM48.989 31.9432H46.989C46.989 38.1368 46.069 43.3144 44.3031 47.5349L46.1481 48.3068L47.9931 49.0788C50.0151 44.2463 50.989 38.5148 50.989 31.9432H48.989ZM46.1481 48.3068L44.3004 47.5415C42.5507 51.7655 40.0882 54.8886 36.9541 57.0231L38.0799 58.6762L39.2058 60.3292C43.0793 57.691 45.9956 53.9012 47.9959 49.0722L46.1481 48.3068ZM38.0799 58.6762L36.9541 57.0231C33.8309 59.1503 30.0426 60.2557 25.4947 60.2557V62.2557V64.2557C30.7196 64.2557 35.3215 62.9747 39.2058 60.3292L38.0799 58.6762ZM25.4947 52.0568V54.0568C29.6651 54.0568 32.9211 51.8866 35.1978 48.0488L33.4777 47.0284L31.7576 46.008C30.0569 48.8748 27.991 50.0568 25.4947 50.0568V52.0568ZM33.4777 47.0284L35.1978 48.0488C37.4598 44.2357 38.4515 38.775 38.4322 31.9376L36.4322 31.9432L34.4322 31.9489C34.4508 38.5205 33.4728 43.1166 31.7576 46.008L33.4777 47.0284ZM36.4322 31.9432H38.4322C38.4322 27.4093 37.9672 23.5195 36.9791 20.3288L35.0686 20.9205L33.1581 21.5121C33.9882 24.1926 34.4322 27.6514 34.4322 31.9432H36.4322ZM35.0686 20.9205L36.9825 20.3401C36.0255 17.1839 34.6027 14.6104 32.5969 12.812L31.2618 14.3012L29.9267 15.7903C31.2163 16.9465 32.3314 18.7859 33.1546 21.5008L35.0686 20.9205ZM31.2618 14.3012L32.6054 12.8197C30.6055 11.0059 28.2031 10.0853 25.4947 10.0853V12.0853V14.0853C27.2181 14.0853 28.6604 14.6419 29.9181 15.7826L31.2618 14.3012ZM25.4947 12.0853V10.0853C21.3499 10.0853 18.1042 12.2295 15.8252 16.0278L17.5402 17.0568L19.2552 18.0858C20.9534 15.2554 23.0107 14.0853 25.4947 14.0853V12.0853ZM17.5402 17.0568L15.8252 16.0278C13.562 19.7998 12.5481 25.1922 12.5288 31.9375L14.5288 31.9432L16.5288 31.9489C16.5474 25.4745 17.5411 20.9427 19.2552 18.0858L17.5402 17.0568ZM14.5288 31.9432H12.5288C12.5288 36.5302 12.9838 40.4683 13.9471 43.7066L15.864 43.1364L17.781 42.5661C16.964 39.8196 16.5288 36.2956 16.5288 31.9432H14.5288ZM15.864 43.1364L13.9514 43.7211C14.9259 46.9086 16.355 49.5057 18.3548 51.3216L19.6993 49.8409L21.0438 48.3603C19.7481 47.1837 18.6203 45.3111 17.7766 42.5516L15.864 43.1364ZM19.6993 49.8409L18.3642 51.3301C20.3793 53.1368 22.7868 54.0568 25.4947 54.0568V52.0568V50.0568C23.7709 50.0568 22.3146 49.4996 21.0344 48.3518L19.6993 49.8409ZM57.7603 60.9773H55.7603V62.9773H57.7603V60.9773ZM57.7603 52.1137L56.4015 50.6461L55.7603 51.2398V52.1137H57.7603ZM78.4706 32.9375L79.8294 34.405L79.8456 34.3901L79.8614 34.3747L78.4706 32.9375ZM82.9024 28.3352L81.4076 27.0065L81.4024 27.0124L81.3972 27.0182L82.9024 28.3352ZM85.6581 24.3296L87.4624 25.1925L87.4671 25.1824L85.6581 24.3296ZM85.4308 15.6364L83.7319 16.6918L83.7392 16.7034L85.4308 15.6364ZM82.249 12.7671L81.3445 14.5509L81.3546 14.556L81.3647 14.5609L82.249 12.7671ZM69.9478 15.9205L71.7112 16.8642V16.8642L69.9478 15.9205ZM68.8683 20.7216V22.7216H70.8683V20.7216H68.8683ZM57.1922 20.7216H55.1922V22.7216H57.1922V20.7216ZM59.7774 10.8068L61.4811 11.8544L59.7774 10.8068ZM67.0217 4.30116L66.136 2.50795V2.50795L67.0217 4.30116ZM88.641 4.21593L87.7777 6.02001L87.7844 6.02319L87.791 6.02632L88.641 4.21593ZM95.8853 10.2955L94.2194 11.4021V11.4021L95.8853 10.2955ZM97.1638 25.7216L95.3114 24.9675L95.3085 24.9746L95.3057 24.9817L97.1638 25.7216ZM92.5899 32.8523L94.1162 34.1447L94.1209 34.1392L92.5899 32.8523ZM83.3001 42.1989L81.9541 40.7196L81.9267 40.7445L81.9003 40.7704L83.3001 42.1989ZM74.8058 50.5228L73.406 49.0943L72.8058 49.6824V50.5228H74.8058ZM74.8058 50.9205H72.8058V52.9205H74.8058V50.9205ZM99.2376 50.9205H101.238V48.9205H99.2376V50.9205ZM99.2376 60.9773V62.9773H101.238V60.9773H99.2376ZM57.7603 60.9773H59.7603V52.1137H57.7603H55.7603V60.9773H57.7603ZM57.7603 52.1137L59.1192 53.5812L79.8294 34.405L78.4706 32.9375L77.1118 31.47L56.4015 50.6461L57.7603 52.1137ZM78.4706 32.9375L79.8614 34.3747C81.6497 32.6441 83.1678 31.0691 84.4075 29.6523L82.9024 28.3352L81.3972 27.0182C80.2506 28.3287 78.8142 29.8218 77.0797 31.5003L78.4706 32.9375ZM82.9024 28.3352L84.3972 29.664C85.7031 28.1948 86.7388 26.7054 87.4623 25.1925L85.6581 24.3296L83.8538 23.4667C83.3274 24.5673 82.5259 25.7484 81.4076 27.0065L82.9024 28.3352ZM85.6581 24.3296L87.4671 25.1824C88.2237 23.5774 88.5956 21.8547 88.5956 20.0398H86.5956H84.5956C84.5956 21.2931 84.3424 22.4302 83.849 23.4767L85.6581 24.3296ZM86.5956 20.0398H88.5956C88.5956 18.0233 88.1328 16.1712 87.1224 14.5694L85.4308 15.6364L83.7392 16.7034C84.2818 17.5637 84.5956 18.6472 84.5956 20.0398H86.5956ZM85.4308 15.6364L87.1297 14.581C86.1521 13.0073 84.8065 11.798 83.1333 10.9732L82.249 12.7671L81.3647 14.5609C82.3808 15.0619 83.1565 15.7654 83.7319 16.6917L85.4308 15.6364ZM82.249 12.7671L83.1534 10.9833C81.4937 10.1417 79.6526 9.74434 77.6751 9.74434V11.7443V13.7443C79.1068 13.7443 80.3149 14.0288 81.3445 14.5509L82.249 12.7671ZM77.6751 11.7443V9.74434C75.6216 9.74434 73.7291 10.1611 72.0618 11.0662L73.016 12.8239L73.9702 14.5816C74.9544 14.0473 76.168 13.7443 77.6751 13.7443V11.7443ZM73.016 12.8239L72.0618 11.0662C70.3886 11.9745 69.0864 13.2915 68.1845 14.9767L69.9478 15.9205L71.7112 16.8642C72.2486 15.86 72.9919 15.1127 73.9702 14.5816L73.016 12.8239ZM69.9478 15.9205L68.1845 14.9767C67.2792 16.6683 66.8683 18.607 66.8683 20.7216H68.8683H70.8683C70.8683 19.1241 71.1771 17.8621 71.7112 16.8642L69.9478 15.9205ZM68.8683 20.7216V18.7216H57.1922V20.7216V22.7216H68.8683V20.7216ZM57.1922 20.7216H59.1922C59.1922 17.2256 59.9801 14.2956 61.4811 11.8544L59.7774 10.8068L58.0737 9.75929C56.1277 12.9242 55.1922 16.604 55.1922 20.7216H57.1922ZM59.7774 10.8068L61.4811 11.8544C62.9969 9.38921 65.12 7.47103 67.9074 6.09436L67.0217 4.30116L66.136 2.50795C62.7112 4.19946 60.0049 6.61841 58.0737 9.75929L59.7774 10.8068ZM67.0217 4.30116L67.9074 6.09436C70.6949 4.71761 73.9625 4.00002 77.7603 4.00002V2.00002V1.90735e-05C73.4522 1.90735e-05 69.5607 0.816521 66.136 2.50795L67.0217 4.30116ZM77.7603 2.00002V4.00002C81.692 4.00002 85.0123 4.69669 87.7777 6.02001L88.641 4.21593L89.5043 2.41185C86.0955 0.780626 82.162 1.90735e-05 77.7603 1.90735e-05V2.00002ZM88.641 4.21593L87.791 6.02632C90.6005 7.34542 92.7186 9.14263 94.2194 11.4021L95.8853 10.2955L97.5513 9.18888C95.6051 6.25892 92.8936 4.00311 89.491 2.40554L88.641 4.21593ZM95.8853 10.2955L94.2194 11.4021C95.7083 13.6436 96.4706 16.2259 96.4706 19.2159H98.4706H100.471C100.471 15.5014 99.5094 12.1368 97.5513 9.18888L95.8853 10.2955ZM98.4706 19.2159H96.4706C96.4706 21.1411 96.0902 23.0543 95.3114 24.9675L97.1638 25.7216L99.0162 26.4757C99.9797 24.1087 100.471 21.6847 100.471 19.2159H98.4706ZM97.1638 25.7216L95.3057 24.9817C94.5608 26.8522 93.1781 29.0443 91.0589 31.5654L92.5899 32.8523L94.1209 34.1392C96.3957 31.433 98.0622 28.8713 99.0218 26.4616L97.1638 25.7216ZM92.5899 32.8523L91.0635 31.5599C88.9452 34.0617 85.9188 37.1119 81.9541 40.7196L83.3001 42.1989L84.6462 43.6781C88.6739 40.0131 91.8406 36.8323 94.1162 34.1447L92.5899 32.8523ZM83.3001 42.1989L81.9003 40.7704L73.406 49.0943L74.8058 50.5228L76.2056 51.9512L84.6999 43.6274L83.3001 42.1989ZM74.8058 50.5228H72.8058V50.9205H74.8058H76.8058V50.5228H74.8058ZM74.8058 50.9205V52.9205H99.2376V50.9205V48.9205H74.8058V50.9205ZM99.2376 50.9205H97.2376V60.9773H99.2376H101.238V50.9205H99.2376ZM99.2376 60.9773V58.9773H57.7603V60.9773V62.9773H99.2376V60.9773Z" fill="#C3D9D9" mask="url(#path-1-outside-1_63740_65)"/>
</svg>
