<svg width="104" height="65" viewBox="0 0 104 65" fill="none" xmlns="http://www.w3.org/2000/svg">
<mask id="path-1-outside-1_63740_70" maskUnits="userSpaceOnUse" x="-0.0336914" y="-0.0227051" width="104" height="65" fill="black">
<rect fill="white" x="-0.0336914" y="-0.0227051" width="104" height="65"/>
<path d="M25.4947 62.2557C20.6084 62.2368 16.4038 61.0341 12.8811 58.6477C9.37729 56.2614 6.67843 52.8049 4.78449 48.2784C2.90949 43.7519 1.98146 38.3068 2.0004 31.9432C2.0004 25.5985 2.9379 20.1913 4.8129 15.7216C6.70684 11.2519 9.4057 7.85229 12.9095 5.52275C16.4322 3.17426 20.6273 2.00002 25.4947 2.00002C30.3621 2.00002 34.5478 3.17426 38.0515 5.52275C41.5743 7.87123 44.2826 11.2803 46.1765 15.75C48.0705 20.2008 49.008 25.5985 48.989 31.9432C48.989 38.3258 48.0421 43.7803 46.1481 48.3068C44.2731 52.8334 41.5837 56.2898 38.0799 58.6762C34.5762 61.0625 30.3811 62.2557 25.4947 62.2557ZM25.4947 52.0568C28.8281 52.0568 31.489 50.3807 33.4777 47.0284C35.4663 43.6762 36.4512 38.6477 36.4322 31.9432C36.4322 27.5303 35.9777 23.8561 35.0686 20.9205C34.1784 17.9849 32.9095 15.7784 31.2618 14.3012C29.633 12.8239 27.7106 12.0852 25.4947 12.0852C22.1803 12.0852 19.5288 13.7424 17.5402 17.0568C15.5515 20.3712 14.5477 25.3334 14.5288 31.9432C14.5288 36.4129 14.9739 40.144 15.864 43.1364C16.7731 46.1099 18.0515 48.3447 19.6993 49.8409C21.347 51.3182 23.2788 52.0568 25.4947 52.0568ZM79.266 61.7727C75.0236 61.7727 71.2452 61.0436 67.9308 59.5852C64.6353 58.108 62.0312 56.0815 60.1183 53.5057C58.2244 50.911 57.249 47.9186 57.1922 44.5284H69.5785C69.6543 45.9489 70.1183 47.1989 70.9706 48.2784C71.8418 49.339 72.9971 50.1629 74.4365 50.75C75.8759 51.3371 77.4952 51.6307 79.2944 51.6307C81.1694 51.6307 82.8266 51.2993 84.266 50.6364C85.7054 49.9735 86.8323 49.0549 87.6467 47.8807C88.4611 46.7065 88.8683 45.3523 88.8683 43.8182C88.8683 42.2652 88.4327 40.8921 87.5615 39.6989C86.7092 38.4868 85.4781 37.5398 83.8683 36.858C82.2774 36.1762 80.3834 35.8352 78.1865 35.8352H72.7603V26.8012H78.1865C80.0425 26.8012 81.6808 26.4792 83.1013 25.8352C84.5406 25.1913 85.6581 24.3012 86.4535 23.1648C87.249 22.0095 87.6467 20.6648 87.6467 19.1307C87.6467 17.6724 87.2963 16.394 86.5956 15.2955C85.9138 14.1781 84.9478 13.3068 83.6978 12.6818C82.4668 12.0568 81.0274 11.7443 79.3797 11.7443C77.713 11.7443 76.1884 12.0474 74.8058 12.6534C73.4232 13.2406 72.3153 14.0834 71.4819 15.1818C70.6486 16.2803 70.2035 17.5682 70.1467 19.0455H58.3569C58.4138 15.6932 59.3702 12.7387 61.2263 10.1818C63.0823 7.62502 65.5823 5.62691 68.7263 4.18752C71.8891 2.72919 75.4592 2.00002 79.4365 2.00002C83.4516 2.00002 86.9649 2.72919 89.9763 4.18752C92.9876 5.64585 95.3266 7.61555 96.9933 10.0966C98.6789 12.5587 99.5122 15.3239 99.4933 18.3921C99.5122 21.6496 98.499 24.3674 96.4535 26.5455C94.427 28.7235 91.785 30.1061 88.5274 30.6932V31.1477C92.8077 31.697 96.0653 33.1837 98.3001 35.608C100.554 38.0133 101.671 41.0246 101.652 44.6421C101.671 47.9565 100.715 50.9015 98.7831 53.4773C96.8702 56.0531 94.2281 58.0796 90.8569 59.5568C87.4857 61.0341 83.6221 61.7727 79.266 61.7727Z"/>
</mask>
<path d="M25.4947 62.2557L25.487 64.2557H25.4947V62.2557ZM12.8811 58.6478L11.7552 60.3008L11.7594 60.3036L12.8811 58.6478ZM4.78449 48.2784L2.93673 49.0438L2.93948 49.0504L4.78449 48.2784ZM2.0004 31.9432L4.0004 31.9492V31.9432H2.0004ZM4.8129 15.7216L2.97138 14.9413L2.9686 14.9479L4.8129 15.7216ZM12.9095 5.52275L14.0168 7.18824L14.0189 7.18685L12.9095 5.52275ZM38.0515 5.52275L36.938 7.18409L36.9421 7.18685L38.0515 5.52275ZM46.1765 15.75L44.335 16.5303L44.3362 16.5331L46.1765 15.75ZM48.989 31.9432L46.989 31.9372V31.9432H48.989ZM46.1481 48.3068L44.3031 47.5349L44.3004 47.5415L46.1481 48.3068ZM38.0799 58.6762L39.2058 60.3292L38.0799 58.6762ZM33.4777 47.0284L35.1978 48.0488L33.4777 47.0284ZM36.4322 31.9432H34.4322L34.4322 31.9489L36.4322 31.9432ZM35.0686 20.9205L33.1546 21.5008L33.1581 21.5121L35.0686 20.9205ZM31.2618 14.3012L29.9181 15.7826L29.9267 15.7903L31.2618 14.3012ZM17.5402 17.0568L15.8252 16.0278H15.8252L17.5402 17.0568ZM14.5288 31.9432L12.5288 31.9375V31.9432H14.5288ZM15.864 43.1364L13.9471 43.7066L13.9492 43.7139L13.9514 43.7211L15.864 43.1364ZM19.6993 49.8409L18.3547 51.3216L18.3642 51.3301L19.6993 49.8409ZM25.4947 62.2557L25.5025 60.2557C20.9527 60.2381 17.1497 59.1237 14.0028 56.9919L12.8811 58.6478L11.7594 60.3036C15.6579 62.9445 20.264 64.2354 25.487 64.2557L25.4947 62.2557ZM12.8811 58.6478L14.0069 56.9947C10.871 54.8589 8.39811 51.7334 6.6295 47.5065L4.78449 48.2784L2.93948 49.0504C4.95875 53.8765 7.88359 57.6639 11.7552 60.3008L12.8811 58.6478ZM4.78449 48.2784L6.63224 47.513C4.88388 43.2922 3.98201 38.1236 4.00039 31.9492L2.0004 31.9432L0.000408411 31.9373C-0.019094 38.4901 0.935106 44.2116 2.93674 49.0438L4.78449 48.2784ZM2.0004 31.9432H4.0004C4.0004 25.786 4.9114 20.657 6.6572 16.4953L4.8129 15.7216L2.9686 14.9479C0.964398 19.7256 0.00039959 25.411 0.00039959 31.9432H2.0004ZM4.8129 15.7216L6.6544 16.5019C8.41966 12.3359 10.887 9.26911 14.0168 7.18823L12.9095 5.52275L11.8022 3.85727C7.92437 6.43547 4.99402 10.1679 2.9714 14.9413L4.8129 15.7216ZM12.9095 5.52275L14.0189 7.18685C17.1659 5.08883 20.9614 4.00002 25.4947 4.00002V2.00002V1.90735e-05C20.2932 1.90735e-05 15.6985 1.2597 11.8001 3.85865L12.9095 5.52275ZM25.4947 2.00002V4.00002C30.0283 4.00002 33.8121 5.0889 36.938 7.18408L38.0515 5.52275L39.1651 3.86142C35.2834 1.25962 30.6959 1.90735e-05 25.4947 1.90735e-05V2.00002ZM38.0515 5.52275L36.9421 7.18685C40.094 9.28808 42.5706 12.3662 44.335 16.5303L46.1765 15.75L48.018 14.9697C45.9946 10.1944 43.0545 6.45438 39.1609 3.85865L38.0515 5.52275ZM46.1765 15.75L44.3362 16.5331C46.0965 20.6697 47.0074 25.7832 46.989 31.9372L48.989 31.9432L50.989 31.9492C51.0085 25.4138 50.0445 19.7319 48.0168 14.9669L46.1765 15.75ZM48.989 31.9432H46.989C46.989 38.1368 46.069 43.3144 44.3031 47.5349L46.1481 48.3068L47.9931 49.0788C50.0151 44.2463 50.989 38.5148 50.989 31.9432H48.989ZM46.1481 48.3068L44.3004 47.5415C42.5507 51.7655 40.0882 54.8886 36.9541 57.0231L38.0799 58.6762L39.2058 60.3292C43.0793 57.691 45.9956 53.9012 47.9959 49.0722L46.1481 48.3068ZM38.0799 58.6762L36.9541 57.0231C33.8309 59.1503 30.0426 60.2557 25.4947 60.2557V62.2557V64.2557C30.7196 64.2557 35.3215 62.9747 39.2058 60.3292L38.0799 58.6762ZM25.4947 52.0568V54.0568C29.6651 54.0568 32.9211 51.8866 35.1978 48.0488L33.4777 47.0284L31.7576 46.008C30.0569 48.8748 27.991 50.0568 25.4947 50.0568V52.0568ZM33.4777 47.0284L35.1978 48.0488C37.4598 44.2357 38.4515 38.775 38.4322 31.9376L36.4322 31.9432L34.4322 31.9489C34.4508 38.5205 33.4728 43.1166 31.7576 46.008L33.4777 47.0284ZM36.4322 31.9432H38.4322C38.4322 27.4093 37.9672 23.5195 36.9791 20.3288L35.0686 20.9205L33.1581 21.5121C33.9882 24.1926 34.4322 27.6514 34.4322 31.9432H36.4322ZM35.0686 20.9205L36.9825 20.3401C36.0255 17.1839 34.6027 14.6104 32.5969 12.812L31.2618 14.3012L29.9267 15.7903C31.2163 16.9465 32.3314 18.7859 33.1546 21.5008L35.0686 20.9205ZM31.2618 14.3012L32.6054 12.8197C30.6055 11.0059 28.2031 10.0853 25.4947 10.0853V12.0853V14.0853C27.2181 14.0853 28.6604 14.6419 29.9181 15.7826L31.2618 14.3012ZM25.4947 12.0853V10.0853C21.3499 10.0853 18.1042 12.2295 15.8252 16.0278L17.5402 17.0568L19.2552 18.0858C20.9534 15.2554 23.0107 14.0853 25.4947 14.0853V12.0853ZM17.5402 17.0568L15.8252 16.0278C13.562 19.7998 12.5481 25.1922 12.5288 31.9375L14.5288 31.9432L16.5288 31.9489C16.5474 25.4745 17.5411 20.9427 19.2552 18.0858L17.5402 17.0568ZM14.5288 31.9432H12.5288C12.5288 36.5302 12.9838 40.4683 13.9471 43.7066L15.864 43.1364L17.781 42.5661C16.964 39.8196 16.5288 36.2956 16.5288 31.9432H14.5288ZM15.864 43.1364L13.9514 43.7211C14.9259 46.9086 16.355 49.5057 18.3548 51.3216L19.6993 49.8409L21.0438 48.3603C19.7481 47.1837 18.6203 45.3111 17.7766 42.5516L15.864 43.1364ZM19.6993 49.8409L18.3642 51.3301C20.3793 53.1368 22.7868 54.0568 25.4947 54.0568V52.0568V50.0568C23.7709 50.0568 22.3146 49.4996 21.0344 48.3518L19.6993 49.8409ZM67.9308 59.5853L67.1127 61.4103L67.1253 61.4159L67.9308 59.5853ZM60.1183 53.5057L58.5029 54.6849L58.5077 54.6915L58.5126 54.6981L60.1183 53.5057ZM57.1922 44.5284V42.5284H55.1584L55.1924 44.5619L57.1922 44.5284ZM69.5785 44.5284L71.5757 44.4219L71.4747 42.5284H69.5785V44.5284ZM70.9706 48.2784L69.4008 49.5177L69.4128 49.5329L69.4251 49.5479L70.9706 48.2784ZM74.4365 50.75L73.6811 52.6019H73.6811L74.4365 50.75ZM84.266 50.6364L83.4294 48.8198L84.266 50.6364ZM87.6467 47.8807L89.2901 49.0205L87.6467 47.8807ZM87.5615 39.6989L85.9254 40.8492L85.9357 40.8638L85.9462 40.8783L87.5615 39.6989ZM83.8683 36.858L83.0805 38.6963L83.0883 38.6996L83.8683 36.858ZM72.7603 35.8353H70.7603V37.8353H72.7603V35.8353ZM72.7603 26.8012V24.8012H70.7603V26.8012H72.7603ZM83.1013 25.8352L82.2845 24.0096L82.2755 24.0137L83.1013 25.8352ZM86.4535 23.1648L88.092 24.3117L88.0964 24.3054L88.1008 24.299L86.4535 23.1648ZM86.5956 15.2955L84.8883 16.3372L84.8987 16.3543L84.9094 16.3711L86.5956 15.2955ZM83.6978 12.6818L82.7924 14.4652L82.8034 14.4707L83.6978 12.6818ZM74.8058 12.6534L75.5875 14.4943L75.5982 14.4898L75.6087 14.4852L74.8058 12.6534ZM71.4819 15.1818L73.0753 16.3906L71.4819 15.1818ZM70.1467 19.0455V21.0455H72.0713L72.1452 19.1223L70.1467 19.0455ZM58.3569 19.0455L56.3572 19.0116L56.3227 21.0455H58.3569V19.0455ZM61.2263 10.1818L62.8448 11.3568L62.8448 11.3568L61.2263 10.1818ZM68.7262 4.18752L69.5588 6.006L69.5637 6.00376L68.7262 4.18752ZM89.9763 4.18752L90.848 2.38749L89.9763 4.18752ZM96.9933 10.0966L95.3331 11.2119L95.338 11.2192L95.343 11.2264L96.9933 10.0966ZM99.4933 18.3921L97.4933 18.3797L97.4933 18.3917L97.4933 18.4037L99.4933 18.3921ZM96.4535 26.5455L94.9956 25.1763L94.9893 25.1831L96.4535 26.5455ZM88.5274 30.6932L88.1726 28.7249L86.5274 29.0214V30.6932H88.5274ZM88.5274 31.1477H86.5274V32.9075L88.2728 33.1315L88.5274 31.1477ZM98.3001 35.608L96.8296 36.9636L96.8351 36.9696L96.8407 36.9755L98.3001 35.608ZM101.652 44.6421L99.6524 44.6316L99.6524 44.6425L99.6524 44.6535L101.652 44.6421ZM98.7831 53.4773L97.1831 52.2773L97.1774 52.2849L98.7831 53.4773ZM90.8569 59.5568L90.0542 57.725L90.8569 59.5568ZM79.266 61.7728V59.7728C75.2539 59.7728 71.757 59.0837 68.7363 57.7546L67.9308 59.5853L67.1253 61.4159C70.7334 63.0034 74.7933 63.7728 79.266 63.7728V61.7728ZM67.9308 59.5853L68.7489 57.7602C65.7258 56.4051 63.4082 54.5811 61.7239 52.3133L60.1183 53.5057L58.5126 54.6981C60.6542 57.5818 63.5448 59.8109 67.1127 61.4103L67.9308 59.5853ZM60.1183 53.5057L61.7337 52.3266C60.0969 50.084 59.2422 47.4969 59.1919 44.4949L57.1922 44.5284L55.1924 44.5619C55.2558 48.3402 56.3519 51.738 58.5029 54.6849L60.1183 53.5057ZM57.1922 44.5284V46.5284H69.5785V44.5284V42.5284H57.1922V44.5284ZM69.5785 44.5284L67.5814 44.6349C67.6783 46.453 68.2833 48.1022 69.4008 49.5177L70.9706 48.2784L72.5403 47.0391C71.9533 46.2956 71.6302 45.4447 71.5757 44.4219L69.5785 44.5284ZM70.9706 48.2784L69.4251 49.5479C70.5338 50.8977 71.9754 51.9061 73.6811 52.6019L74.4365 50.75L75.1918 48.8982C74.0188 48.4197 73.1497 47.7804 72.516 47.0089L70.9706 48.2784ZM74.4365 50.75L73.6811 52.6019C75.395 53.301 77.2765 53.6307 79.2944 53.6307V51.6307V49.6307C77.7139 49.6307 76.3567 49.3733 75.1918 48.8982L74.4365 50.75ZM79.2944 51.6307V53.6307C81.406 53.6307 83.3572 53.2568 85.1026 52.453L84.266 50.6364L83.4294 48.8198C82.2961 49.3417 80.9329 49.6307 79.2944 49.6307V51.6307ZM84.266 50.6364L85.1026 52.453C86.8303 51.6574 88.2505 50.5196 89.2901 49.0205L87.6467 47.8807L86.0033 46.7409C85.4142 47.5903 84.5806 48.2896 83.4294 48.8198L84.266 50.6364ZM87.6467 47.8807L89.2901 49.0205C90.354 47.4865 90.8683 45.7281 90.8683 43.8182H88.8683H86.8683C86.8683 44.9765 86.5682 45.9264 86.0033 46.7409L87.6467 47.8807ZM88.8683 43.8182H90.8683C90.8683 41.8643 90.3113 40.0733 89.1767 38.5195L87.5615 39.6989L85.9462 40.8783C86.5541 41.7108 86.8683 42.666 86.8683 43.8182H88.8683ZM87.5615 39.6989L89.1975 38.5485C88.0941 36.9791 86.5397 35.8174 84.6483 35.0163L83.8683 36.858L83.0883 38.6996C84.4165 39.2622 85.3244 39.9944 85.9254 40.8492L87.5615 39.6989ZM83.8683 36.858L84.6561 35.0197C82.759 34.2066 80.5841 33.8353 78.1865 33.8353V35.8353V37.8353C80.1828 37.8353 81.7958 38.1457 83.0805 38.6963L83.8683 36.858ZM78.1865 35.8353V33.8353H72.7603V35.8353V37.8353H78.1865V35.8353ZM72.7603 35.8353H74.7603V26.8012H72.7603H70.7603V35.8353H72.7603ZM72.7603 26.8012V28.8012H78.1865V26.8012V24.8012H72.7603V26.8012ZM78.1865 26.8012V28.8012C80.274 28.8012 82.2026 28.4386 83.927 27.6568L83.1013 25.8352L82.2755 24.0137C81.159 24.5198 79.8111 24.8012 78.1865 24.8012V26.8012ZM83.1013 25.8352L83.918 27.6609C85.6415 26.8898 87.0619 25.7833 88.092 24.3117L86.4535 23.1648L84.8151 22.0179C84.2543 22.819 83.4398 23.4928 82.2845 24.0096L83.1013 25.8352ZM86.4535 23.1648L88.1008 24.299C89.1475 22.7788 89.6467 21.0301 89.6467 19.1307H87.6467H85.6467C85.6467 20.2995 85.3504 21.2402 84.8062 22.0306L86.4535 23.1648ZM87.6467 19.1307H89.6467C89.6467 17.3381 89.2113 15.677 88.2817 14.2198L86.5956 15.2955L84.9094 16.3711C85.3814 17.1109 85.6467 18.0066 85.6467 19.1307H87.6467ZM86.5956 15.2955L88.3028 14.2537C87.4122 12.7941 86.1543 11.674 84.5923 10.893L83.6978 12.6818L82.8034 14.4707C83.7414 14.9397 84.4153 15.562 84.8883 16.3372L86.5956 15.2955ZM83.6978 12.6818L84.6032 10.8985C83.0423 10.106 81.2816 9.74434 79.3797 9.74434V11.7443V13.7443C80.7732 13.7443 81.8913 14.0076 82.7925 14.4652L83.6978 12.6818ZM79.3797 11.7443V9.74434C77.4655 9.74434 75.6638 10.0936 74.0028 10.8217L74.8058 12.6534L75.6087 14.4852C76.713 14.0011 77.9605 13.7443 79.3797 13.7443V11.7443ZM74.8058 12.6534L74.0241 10.8125C72.35 11.5234 70.9513 12.5722 69.8885 13.9731L71.4819 15.1818L73.0753 16.3906C73.6793 15.5945 74.4965 14.9577 75.5875 14.4943L74.8058 12.6534ZM71.4819 15.1818L69.8885 13.9731C68.7891 15.4224 68.2196 17.1126 68.1482 18.9686L70.1467 19.0455L72.1452 19.1223C72.1875 18.0238 72.5081 17.1382 73.0753 16.3906L71.4819 15.1818ZM70.1467 19.0455V17.0455H58.3569V19.0455V21.0455H70.1467V19.0455ZM58.3569 19.0455L60.3566 19.0794C60.407 16.111 61.245 13.5605 62.8448 11.3568L61.2263 10.1818L59.6077 9.00692C57.4954 11.9168 56.4205 15.2754 56.3572 19.0116L58.3569 19.0455ZM61.2263 10.1818L62.8448 11.3568C64.4799 9.10433 66.6975 7.31598 69.5588 6.00599L68.7262 4.18752L67.8937 2.36905C64.4671 3.93785 61.6848 6.14571 59.6077 9.00692L61.2263 10.1818ZM68.7262 4.18752L69.5637 6.00376C72.4291 4.68256 75.7073 4.00002 79.4365 4.00002V2.00002V1.90735e-05C75.2111 1.90735e-05 71.3491 0.77581 67.8888 2.37128L68.7262 4.18752ZM79.4365 2.00002V4.00002C83.2093 4.00002 86.4139 4.68456 89.1045 5.98755L89.9763 4.18752L90.848 2.38749C87.5158 0.773817 83.6939 1.90735e-05 79.4365 1.90735e-05V2.00002ZM89.9763 4.18752L89.1045 5.98755C91.836 7.31035 93.8868 9.05882 95.3331 11.2119L96.9933 10.0966L98.6535 8.98137C96.7665 6.17228 94.1392 3.98136 90.848 2.38749L89.9763 4.18752ZM96.9933 10.0966L95.343 11.2264C96.7916 13.3424 97.5098 15.7067 97.4933 18.3797L99.4933 18.3921L101.493 18.4044C101.515 14.9411 100.566 11.7751 98.6436 8.96679L96.9933 10.0966ZM99.4933 18.3921L97.4933 18.4037C97.5096 21.1991 96.6569 23.4074 94.9956 25.1763L96.4535 26.5455L97.9114 27.9146C100.341 25.3275 101.515 22.1002 101.493 18.3804L99.4933 18.3921ZM96.4535 26.5455L94.9893 25.1831C93.2905 27.009 91.055 28.2054 88.1726 28.7249L88.5274 30.6932L88.8821 32.6615C92.5149 32.0067 95.5636 30.438 97.9177 27.9078L96.4535 26.5455ZM88.5274 30.6932H86.5274V31.1477H88.5274H90.5274V30.6932H88.5274ZM88.5274 31.1477L88.2728 33.1315C92.2327 33.6396 95.0009 34.9799 96.8296 36.9636L98.3001 35.608L99.7706 34.2524C97.1296 31.3876 93.3827 29.7544 88.7819 29.164L88.5274 31.1477ZM98.3001 35.608L96.8407 36.9755C98.7092 38.9696 99.669 41.4714 99.6524 44.6316L101.652 44.6421L103.652 44.6525C103.674 40.5779 102.399 37.0569 99.7596 34.2405L98.3001 35.608ZM101.652 44.6421L99.6524 44.6535C99.6689 47.5451 98.8447 50.0618 97.1831 52.2773L98.7831 53.4773L100.383 54.6773C102.585 51.7413 103.674 48.3679 103.652 44.6306L101.652 44.6421ZM98.7831 53.4773L97.1774 52.2849C95.5009 54.5423 93.1543 56.3665 90.0542 57.725L90.8569 59.5568L91.6597 61.3887C95.302 59.7926 98.2395 57.5638 100.389 54.6697L98.7831 53.4773ZM90.8569 59.5568L90.0542 57.725C86.9782 59.0729 83.3957 59.7728 79.266 59.7728V61.7728V63.7728C83.8484 63.7728 87.9933 62.9953 91.6597 61.3887L90.8569 59.5568Z" fill="#C3D9D9" mask="url(#path-1-outside-1_63740_70)"/>
</svg>
