<svg width="260" height="6" viewBox="0 0 260 6" fill="none" xmlns="http://www.w3.org/2000/svg">
<path d="M259.5 2.88672L254.5 -3.26633e-05V5.77347L259.5 2.88672ZM0 2.88672V3.38672H4.99038V2.88672V2.38672H0V2.88672ZM14.9712 2.88672V3.38672H24.9519V2.88672V2.38672H14.9712V2.88672ZM34.9327 2.88672V3.38672H44.9135V2.88672V2.38672H34.9327V2.88672ZM54.8942 2.88672V3.38672H64.875V2.88672V2.38672H54.8942V2.88672ZM74.8558 2.88672V3.38672H84.8365V2.88672V2.38672H74.8558V2.88672ZM94.8173 2.88672V3.38672H104.798V2.88672V2.38672H94.8173V2.88672ZM114.779 2.88672V3.38672H124.76V2.88672V2.38672H114.779V2.88672ZM134.74 2.88672V3.38672H144.721V2.88672V2.38672H134.74V2.88672ZM154.702 2.88672V3.38672H164.683V2.88672V2.38672H154.702V2.88672ZM174.663 2.88672V3.38672H184.644V2.88672V2.38672H174.663V2.88672ZM194.625 2.88672V3.38672H204.606V2.88672V2.38672H194.625V2.88672ZM214.587 2.88672V3.38672H224.567V2.88672V2.38672H214.587V2.88672ZM234.548 2.88672V3.38672H244.529V2.88672V2.38672H234.548V2.88672ZM254.51 2.88672V3.38672H255V2.88672V2.38672H254.51V2.88672Z" fill="#C3D9D9"/>
</svg>
