<svg width="123" height="6" viewBox="0 0 123 6" fill="none" xmlns="http://www.w3.org/2000/svg">
<path d="M123 2.88672L118 -3.26633e-05V5.77347L123 2.88672ZM0 2.88672V3.38672H5.125V2.88672V2.38672H0V2.88672ZM15.375 2.88672V3.38672H25.625V2.88672V2.38672H15.375V2.88672ZM35.875 2.88672V3.38672H46.125V2.88672V2.38672H35.875V2.88672ZM56.375 2.88672V3.38672H66.625V2.88672V2.38672H56.375V2.88672ZM76.875 2.88672V3.38672H87.125V2.88672V2.38672H76.875V2.88672ZM97.375 2.88672V3.38672H107.625V2.88672V2.38672H97.375V2.88672ZM117.875 2.88672V3.38672H118.5V2.88672V2.38672H117.875V2.88672Z" fill="#C3D9D9"/>
</svg>
