<svg width="45" height="45" viewBox="0 0 45 45" fill="none" xmlns="http://www.w3.org/2000/svg">
<rect width="45" height="45" rx="22.5" fill="#F6F6F6"/>
<g clip-path="url(#clip0_61690_34699)">
<path d="M31.6667 23.3161H13.3333C12.8733 23.3161 12.5 22.9427 12.5 22.4827C12.5 22.0227 12.8733 21.6494 13.3333 21.6494H31.6667C32.1267 21.6494 32.5 22.0227 32.5 22.4827C32.5 22.9427 32.1267 23.3161 31.6667 23.3161Z" fill="#484848"/>
<path d="M31.6667 16.9271H13.3333C12.8733 16.9271 12.5 16.5537 12.5 16.0937C12.5 15.6337 12.8733 15.2604 13.3333 15.2604H31.6667C32.1267 15.2604 32.5 15.6337 32.5 16.0937C32.5 16.5537 32.1267 16.9271 31.6667 16.9271Z" fill="#484848"/>
<path d="M31.6667 29.7048H13.3333C12.8733 29.7048 12.5 29.3315 12.5 28.8714C12.5 28.4114 12.8733 28.0381 13.3333 28.0381H31.6667C32.1267 28.0381 32.5 28.4114 32.5 28.8714C32.5 29.3315 32.1267 29.7048 31.6667 29.7048Z" fill="#484848"/>
</g>
<defs>
<clipPath id="clip0_61690_34699">
<rect width="20" height="20" fill="white" transform="translate(12.5 12.5)"/>
</clipPath>
</defs>
</svg>
