<svg width="48" height="48" viewBox="0 0 48 48" fill="none" xmlns="http://www.w3.org/2000/svg">
<path d="M13.6268 6.65606C13.6268 6.99918 13.6005 7.34075 13.5501 7.67828C16.9218 5.71206 20.4944 4.68167 23.9999 4.68167C29.16 4.68167 34.0113 6.69117 37.6601 10.3399C41.3089 13.9887 43.3184 18.84 43.3184 24.0002C43.3184 26.7169 43.0764 28.4787 42.3347 30.4169C43.2467 30.5476 44.1012 30.8579 44.8614 31.3112C45.7017 29.0854 45.9998 27.0014 45.9998 24.0001C45.9998 18.1236 43.7114 12.599 39.5562 8.44369C35.4009 4.28854 29.8762 2.00012 23.9999 2.00012C20.4182 2.00012 16.7953 2.93508 13.3516 4.72676C13.5294 5.3396 13.6268 5.98651 13.6268 6.65606Z" fill="#009483"/>
<path d="M37.7299 39.3025C37.7858 39.3953 37.7335 39.3092 37.8658 39.5214L41.097 44.7239C41.2949 45.0424 41.7618 45.0322 41.9456 44.7054L44.988 39.2958H44.9851C45.3652 38.635 45.5713 37.8614 45.5374 37.0368C45.4482 34.8699 43.6785 33.1086 41.5112 33.0303C39.1291 32.9441 37.1709 34.8497 37.1709 37.2125C37.1709 37.9741 37.3753 38.6874 37.7308 39.3026H37.7299V39.3025ZM41.356 35.9092C42.0754 35.9092 42.6585 36.4923 42.6585 37.2117C42.6585 37.9311 42.0754 38.5142 41.356 38.5142C40.6366 38.5142 40.0535 37.9311 40.0535 37.2117C40.0535 36.4923 40.6367 35.9092 41.356 35.9092Z" fill="#009483"/>
<path d="M10.3839 8.77113H10.3809C10.7669 8.1003 10.9761 7.31491 10.9416 6.47763C10.8512 4.27751 9.05435 2.48935 6.8538 2.40983C4.43542 2.3224 2.44727 4.25703 2.44727 6.65604C2.44727 7.4292 2.65484 8.15348 3.01569 8.7781H3.01475C3.07155 8.87234 3.01836 8.7849 3.15279 9.0004L6.44019 14.2932C6.63804 14.6117 7.10492 14.6015 7.28874 14.2748L10.3839 8.77113ZM5.37391 6.65526C5.37391 5.92496 5.966 5.33286 6.69631 5.33286C7.4267 5.33286 8.01871 5.92496 8.01871 6.65526C8.01871 7.38565 7.42661 7.97766 6.69631 7.97766C5.966 7.97766 5.37391 7.38557 5.37391 6.65526Z" fill="#009483"/>
<path d="M35.5891 40.9375C35.5381 40.8558 35.5175 40.823 35.5065 40.8057C35.4812 40.7655 35.4811 40.7656 35.4475 40.7097L35.4341 40.6875C35.4108 40.6489 35.3886 40.6099 35.3675 40.5704C35.2276 40.3214 35.1042 40.064 34.997 39.8005C31.7176 42.1915 28.171 43.3185 24.0001 43.3185C18.84 43.3185 13.9886 41.309 10.3398 37.6603C6.69096 34.0114 4.68154 29.1601 4.68154 24C4.68154 21.2634 4.95547 19.2098 5.62356 17.3687C5.21185 17.1501 4.85668 16.8254 4.60246 16.416L3.72111 14.9971C2.32419 17.9111 2 20.7648 2 24.0001C2 29.8765 4.28842 35.4011 8.44374 39.5565C12.5991 43.7118 18.1237 46.0001 24.0001 46.0001C28.6766 46.0001 32.6609 44.7641 36.3381 42.1434L35.5891 40.9375Z" fill="#009483"/>
<path d="M13.0119 20.9104C13.5649 21.0394 14.2368 21.0207 15.0663 20.8534C15.7093 20.7237 16.2358 20.4418 16.5487 20.0595C16.712 19.86 16.8613 19.5817 17.0193 19.287C17.2538 18.8496 17.5197 18.3539 17.9348 17.9038C18.681 17.0946 19.6289 16.7211 20.4653 16.3916C20.7275 16.2882 20.9751 16.1907 21.2024 16.0856C23.2945 15.118 24.8469 12.4264 24.6628 10.0854C24.6565 10.0054 24.6587 9.92686 24.6662 9.84975C24.4455 9.83951 24.2237 9.83374 24.0006 9.83374C17.2124 9.83374 11.5408 14.6099 10.1602 20.9847C11.0874 20.7905 12.1027 20.6988 13.0119 20.9104Z" fill="#009483"/>
<path d="M37.889 26.4298C36.6534 26.217 34.499 26.1783 33.2623 26.2759C29.0314 26.6093 27.1275 26.1309 25.7005 25.5644C25.4947 25.4827 25.2933 25.3957 25.0988 25.3116C24.4281 25.022 23.795 24.7486 23.3518 24.8538C22.9898 24.9402 22.6323 25.3541 22.4624 25.8835C22.2549 26.53 22.2737 27.3051 22.3167 28.1781L22.3313 28.4707C22.4034 29.8927 22.4778 31.3631 22.1746 32.857C21.8592 34.4113 20.4779 36.2251 19.1416 37.3028C20.6571 37.8564 22.2935 38.1585 24.0006 38.1585C30.9897 38.1585 36.7957 33.0957 37.9527 26.4375C37.9315 26.4348 37.9103 26.4334 37.889 26.4298Z" fill="#009483"/>
<path d="M17.0226 35.5254C18.059 34.906 19.3565 33.2602 19.5465 32.3235C19.7824 31.161 19.7196 29.9199 19.653 28.606L19.6382 28.3101C19.584 27.2126 19.564 26.1384 19.9089 25.0638C20.3689 23.6307 21.4495 22.5508 22.729 22.2454C24.0392 21.9324 25.2162 22.4413 26.1618 22.8498C26.3466 22.9297 26.5211 23.005 26.6896 23.0719C28.6905 23.8662 31.0226 23.7624 33.0514 23.6024C34.3879 23.4973 36.6694 23.5293 38.1596 23.7574C38.0512 17.1972 33.483 11.723 27.3548 10.2344C27.4599 13.6087 25.349 17.122 22.3277 18.5193C22.03 18.6571 21.7342 18.7736 21.448 18.8863C20.8245 19.132 20.2355 19.3641 19.9059 19.7215C19.7215 19.9215 19.5567 20.2288 19.3822 20.5542C19.1804 20.9306 18.9517 21.357 18.6233 21.7582C17.9194 22.6181 16.8443 23.2302 15.5962 23.482C14.3827 23.7269 13.3384 23.7399 12.4033 23.5221C11.7148 23.3619 10.6825 23.5857 9.83996 23.8352C9.83935 23.8889 9.83789 23.9424 9.83789 23.9961C9.83789 29.0781 12.5151 33.5339 16.5355 36.0326C16.6465 35.8298 16.81 35.6525 17.0226 35.5254Z" fill="#009483"/>
</svg>
