<svg width="48" height="48" viewBox="0 0 48 48" fill="none" xmlns="http://www.w3.org/2000/svg">
<path d="M31.4666 5.02974C30.9852 4.97791 30.6101 4.58863 30.5761 4.10564L30.4982 2.99753C30.4595 2.44661 29.9814 2.03141 29.4305 2.07015L3.81785 3.87126C3.26693 3.91001 2.85172 4.38803 2.89046 4.93895L5.35561 39.993C5.39435 40.5439 5.87239 40.9592 6.42332 40.9204L6.98812 40.8807C7.51188 40.8438 7.91795 40.4082 7.91795 39.8831V9.85927C7.91795 9.30698 8.36566 8.85927 8.91795 8.85927H37.1737C37.726 8.85927 38.1737 9.30698 38.1737 9.85927V42.2092C38.1737 42.72 38.5587 43.1487 39.0667 43.2034L40.2092 43.3264C40.7583 43.3855 41.2513 42.9883 41.3105 42.4392L45.0727 7.50064C45.1318 6.95153 44.7346 6.45845 44.1855 6.39932L31.4666 5.02974Z" fill="#009483"/>
<path d="M11.498 11.4392C10.9458 11.4392 10.498 11.8869 10.498 12.4392V45C10.498 45.5523 10.9458 46 11.498 46H34.594C35.1463 46 35.594 45.5523 35.594 45V12.4392C35.594 11.8869 35.1463 11.4392 34.594 11.4392H11.498ZM18.7657 17.3215C20.3563 17.3215 21.61 17.902 22.411 18.9467L20.6813 20.4907C20.2053 19.8869 19.6365 19.5386 18.9051 19.5386C17.7674 19.5386 17.0013 20.3281 17.0013 21.5702C17.0013 22.8123 17.7675 23.6018 18.9051 23.6018C19.6365 23.6018 20.2054 23.2535 20.6813 22.6497L22.411 24.1937C21.61 25.2384 20.3562 25.8189 18.7657 25.8189C16.1537 25.8189 14.2382 24.066 14.2382 21.57C14.2382 19.0744 16.1538 17.3215 18.7657 17.3215ZM31.4591 40.549H14.6328V37.9691H31.4591V40.549ZM31.4591 35.9601H14.6328V33.3801H31.4591V35.9601ZM31.4591 31.3711H14.6328V28.7912H31.4591V31.3711ZM28.448 25.6336H25.7546L22.3183 17.5072H25.2671L27.2058 22.2553L29.1911 17.5072H31.8843L28.448 25.6336Z" fill="#009483"/>
</svg>
