<svg width="48" height="48" viewBox="0 0 48 48" fill="none" xmlns="http://www.w3.org/2000/svg">
<path d="M40.1066 18.0213V35.7319C40.1066 36.3954 39.5701 36.9319 38.9066 36.9319H9.09713C8.4336 36.9319 7.89715 36.3954 7.89715 35.7319V16.6731C7.89715 16.0095 8.4336 15.4731 9.09713 15.4731H24.8807V12.2825H7.7842C6.08302 12.2825 4.70654 13.6589 4.70654 15.3601V38.9295H43.2971V18.0213H40.1066Z" fill="#009483"/>
<path d="M46.5724 40.08C46.3183 39.6918 45.8947 39.4589 45.4288 39.4589H2.57475C2.10887 39.4589 1.68535 39.6918 1.43122 40.08C1.17712 40.4683 1.14181 40.9553 1.31828 41.3436L1.93239 43.3977C2.51829 44.7106 3.82418 45.5506 5.25712 45.5506H42.7394C44.1653 45.5506 45.4712 44.7106 46.0783 43.3695L46.6783 41.3577C46.8618 40.9412 46.8195 40.4612 46.5724 40.08ZM27.6477 43.3624H20.3559C19.8759 43.3624 19.4947 42.9742 19.4947 42.5012C19.4947 42.0283 19.8759 41.64 20.3559 41.64H27.6477C28.1206 41.64 28.5089 42.0283 28.5089 42.5012C28.5089 42.9742 28.1206 43.3624 27.6477 43.3624Z" fill="#009483"/>
<path d="M18.1949 26.8028C16.0899 26.8028 14.3774 24.8285 14.3774 22.4009C14.3774 19.9741 16.0899 17.9998 18.1949 17.9998C20.3005 17.9998 22.0137 19.9741 22.0137 22.4009C22.0137 24.8285 20.3005 26.8028 18.1949 26.8028Z" fill="#009483"/>
<path d="M24.5041 34.4097H11.8872C11.6782 34.4097 11.4771 34.3222 11.3352 34.1697C11.1926 34.0165 11.1199 33.8097 11.1347 33.6015L11.3712 30.3007C11.5046 28.445 13.0653 26.9916 14.926 26.9916H21.4653C23.326 26.9916 24.8867 28.445 25.0194 30.3007L25.2558 33.6015C25.2707 33.8097 25.198 34.0165 25.0561 34.1697C24.9142 34.3222 24.7123 34.4097 24.5041 34.4097Z" fill="#009483"/>
<path d="M45.5772 3.01417C45.2102 2.66828 44.7161 2.44946 44.1584 2.44946H27.4855C26.3419 2.44946 25.4102 3.38829 25.4102 4.53181V15.4095C25.4102 15.5224 25.4172 15.6283 25.4384 15.7342C25.5937 16.7295 26.4549 17.4918 27.4855 17.4918H27.6125C28.1913 17.4918 28.6572 17.9577 28.6572 18.5295V21.0495C28.6572 21.7836 29.5467 22.1648 30.0831 21.6424L33.9231 17.8024C34.1208 17.6048 34.3819 17.4918 34.6572 17.4918H44.1584C45.309 17.4918 46.2408 16.5601 46.2408 15.4095V4.53181C46.2408 3.93182 45.9866 3.39534 45.5772 3.01417ZM30.4855 11.4353C29.6314 11.4353 28.9466 10.7436 28.9466 9.88947C28.9466 9.03535 29.6314 8.35064 30.4855 8.35064C31.3396 8.35064 32.0313 9.03535 32.0313 9.88947C32.0313 10.7436 31.3396 11.4353 30.4855 11.4353ZM35.8219 11.4353C34.9678 11.4353 34.2831 10.7436 34.2831 9.88947C34.2831 9.03535 34.9678 8.35064 35.8219 8.35064C36.6761 8.35064 37.3678 9.03535 37.3678 9.88947C37.3678 10.7436 36.6761 11.4353 35.8219 11.4353ZM41.1584 11.4353C40.3043 11.4353 39.6196 10.7436 39.6196 9.88947C39.6196 9.03535 40.3043 8.35064 41.1584 8.35064C42.0125 8.35064 42.7043 9.03535 42.7043 9.88947C42.7043 10.7436 42.0125 11.4353 41.1584 11.4353Z" fill="#009483"/>
</svg>
