<svg width="138" height="39" viewBox="0 0 138 39" fill="none" xmlns="http://www.w3.org/2000/svg">
<path d="M0.710227 6.99006V4.45455H12.6562V6.99006H8.20312V19H5.16335V6.99006H0.710227ZM13.6339 19V8.09091H16.5672V9.99432H16.6808C16.8797 9.31723 17.2135 8.80587 17.6822 8.46023C18.151 8.10985 18.6908 7.93466 19.3016 7.93466C19.4531 7.93466 19.6164 7.94413 19.7916 7.96307C19.9668 7.98201 20.1207 8.00805 20.2533 8.04119V10.7259C20.1112 10.6832 19.9147 10.6454 19.6638 10.6122C19.4128 10.5791 19.1832 10.5625 18.9749 10.5625C18.5298 10.5625 18.1321 10.6596 17.7817 10.8537C17.436 11.0431 17.1614 11.3082 16.9578 11.6491C16.7589 11.9901 16.6595 12.383 16.6595 12.8281V19H13.6339ZM29.0133 14.3551V8.09091H32.0388V19H29.134V17.0185H29.0204C28.7742 17.6577 28.3646 18.1714 27.7917 18.5597C27.2235 18.9479 26.5299 19.142 25.7107 19.142C24.9816 19.142 24.34 18.9763 23.786 18.6449C23.232 18.3134 22.7988 17.8423 22.4863 17.2315C22.1785 16.6207 22.0223 15.8892 22.0175 15.0369V8.09091H25.0431V14.4972C25.0478 15.1411 25.2207 15.6501 25.5616 16.0241C25.9025 16.3982 26.3594 16.5852 26.9323 16.5852C27.2969 16.5852 27.6378 16.5024 27.955 16.3366C28.2723 16.1662 28.528 15.9152 28.7221 15.5838C28.921 15.2524 29.018 14.8428 29.0133 14.3551ZM43.7357 11.2017L40.9658 11.3722C40.9184 11.1354 40.8166 10.9223 40.6604 10.733C40.5041 10.5388 40.2982 10.3849 40.0425 10.2713C39.7915 10.1529 39.4909 10.0938 39.1405 10.0938C38.6717 10.0938 38.2764 10.1932 37.9544 10.392C37.6324 10.5862 37.4714 10.8466 37.4714 11.1733C37.4714 11.4337 37.5756 11.6539 37.7839 11.8338C37.9923 12.0137 38.3498 12.1581 38.8564 12.267L40.8308 12.6648C41.8914 12.8826 42.6821 13.233 43.203 13.7159C43.7238 14.1989 43.9842 14.8333 43.9842 15.6193C43.9842 16.3343 43.7735 16.9616 43.3521 17.5014C42.9355 18.0412 42.3625 18.4626 41.6334 18.7656C40.9089 19.0639 40.0732 19.2131 39.1263 19.2131C37.6821 19.2131 36.5316 18.9124 35.6746 18.3111C34.8223 17.705 34.3228 16.8812 34.176 15.8395L37.1518 15.6832C37.2418 16.1236 37.4596 16.4598 37.8053 16.6918C38.1509 16.919 38.5936 17.0327 39.1334 17.0327C39.6637 17.0327 40.0898 16.9309 40.4118 16.7273C40.7385 16.5189 40.9042 16.2514 40.9089 15.9247C40.9042 15.6501 40.7882 15.4252 40.5609 15.25C40.3337 15.0701 39.9833 14.9328 39.5098 14.8381L37.6206 14.4616C36.5553 14.2486 35.7622 13.8793 35.2413 13.3537C34.7252 12.8281 34.4672 12.1581 34.4672 11.3438C34.4672 10.643 34.6566 10.0393 35.0354 9.53267C35.4189 9.02604 35.9563 8.63542 36.6476 8.3608C37.3436 8.08617 38.158 7.94886 39.0908 7.94886C40.4686 7.94886 41.5529 8.24006 42.3436 8.82244C43.1391 9.40483 43.6031 10.1979 43.7357 11.2017ZM51.892 8.09091V10.3636H45.3224V8.09091H51.892ZM46.8138 5.47727H49.8394V15.6477C49.8394 15.9271 49.882 16.1449 49.9673 16.3011C50.0525 16.4527 50.1709 16.5592 50.3224 16.6207C50.4786 16.6823 50.6585 16.7131 50.8621 16.7131C51.0042 16.7131 51.1462 16.7012 51.2883 16.6776C51.4303 16.6491 51.5392 16.6278 51.615 16.6136L52.0908 18.8651C51.9393 18.9124 51.7263 18.9669 51.4516 19.0284C51.177 19.0947 50.8432 19.1349 50.4502 19.1491C49.721 19.1776 49.0818 19.0805 48.5326 18.858C47.9881 18.6354 47.5643 18.2898 47.2613 17.821C46.9583 17.3523 46.8091 16.7604 46.8138 16.0455V5.47727ZM55.9308 23.0909C55.5472 23.0909 55.1874 23.0601 54.8512 22.9986C54.5198 22.9418 54.2451 22.8684 54.0273 22.7784L54.7092 20.5199C55.0643 20.6288 55.3839 20.688 55.668 20.6974C55.9568 20.7069 56.2054 20.6406 56.4137 20.4986C56.6268 20.3565 56.7996 20.1151 56.9322 19.7741L57.1097 19.3125L53.1964 8.09091H56.3782L58.6367 16.1023H58.7504L61.0302 8.09091H64.2333L59.9933 20.179C59.7897 20.7661 59.5127 21.2775 59.1623 21.7131C58.8166 22.1534 58.3787 22.492 57.8484 22.7287C57.3181 22.9702 56.6789 23.0909 55.9308 23.0909ZM64.8008 6.99006V4.45455H76.7469V6.99006H72.2937V19H69.254V6.99006H64.8008ZM80.4838 19.206C79.7878 19.206 79.1675 19.0852 78.623 18.8438C78.0785 18.5975 77.6476 18.2353 77.3304 17.7571C77.0179 17.2741 76.8616 16.6728 76.8616 15.9531C76.8616 15.3471 76.9729 14.8381 77.1955 14.4261C77.418 14.0142 77.721 13.6828 78.1045 13.4318C78.4881 13.1809 78.9237 12.9915 79.4114 12.8636C79.9038 12.7358 80.4199 12.6458 80.9597 12.5938C81.5941 12.5275 82.1055 12.4659 82.4938 12.4091C82.882 12.3475 83.1637 12.2576 83.3389 12.1392C83.5141 12.0208 83.6017 11.8456 83.6017 11.6136V11.571C83.6017 11.1212 83.4597 10.7732 83.1756 10.527C82.8962 10.2808 82.4985 10.1577 81.9824 10.1577C81.4379 10.1577 81.0046 10.2784 80.6827 10.5199C80.3607 10.7566 80.1476 11.0549 80.0435 11.4148L77.2452 11.1875C77.3872 10.5246 77.6666 9.9517 78.0832 9.46875C78.4999 8.98106 79.0373 8.60701 79.6955 8.34659C80.3583 8.08144 81.1254 7.94886 81.9966 7.94886C82.6027 7.94886 83.1827 8.01989 83.7366 8.16193C84.2954 8.30398 84.7902 8.52415 85.221 8.82244C85.6566 9.12074 85.9999 9.50426 86.2509 9.97301C86.5018 10.437 86.6273 10.9934 86.6273 11.642V19H83.758V17.4872H83.6727C83.4975 17.8281 83.2632 18.1288 82.9696 18.3892C82.676 18.6449 82.3233 18.8461 81.9114 18.9929C81.4994 19.1349 81.0236 19.206 80.4838 19.206ZM81.3503 17.1179C81.7954 17.1179 82.1884 17.0303 82.5293 16.8551C82.8702 16.6752 83.1377 16.4337 83.3318 16.1307C83.5259 15.8277 83.623 15.4844 83.623 15.1009V13.9432C83.5283 14.0047 83.3981 14.0616 83.2324 14.1136C83.0714 14.161 82.8891 14.206 82.6855 14.2486C82.4819 14.2865 82.2783 14.322 82.0747 14.3551C81.8711 14.3835 81.6865 14.4096 81.5207 14.4332C81.1656 14.4853 80.8555 14.5682 80.5903 14.6818C80.3252 14.7955 80.1192 14.9493 79.9724 15.1435C79.8257 15.3329 79.7523 15.5696 79.7523 15.8537C79.7523 16.2656 79.9014 16.5805 80.1997 16.7983C80.5027 17.0114 80.8863 17.1179 81.3503 17.1179ZM92.2001 4.45455V19H89.1746V4.45455H92.2001ZM99.7954 19.2131C98.6732 19.2131 97.7073 18.9858 96.8977 18.5312C96.0927 18.072 95.4725 17.4233 95.0369 16.5852C94.6013 15.7424 94.3835 14.7457 94.3835 13.5952C94.3835 12.473 94.6013 11.4882 95.0369 10.6406C95.4725 9.79309 96.0856 9.13258 96.8764 8.65909C97.6718 8.18561 98.6046 7.94886 99.6746 7.94886C100.394 7.94886 101.064 8.06487 101.685 8.29688C102.31 8.52415 102.854 8.86742 103.318 9.3267C103.787 9.78598 104.151 10.3636 104.412 11.0597C104.672 11.7509 104.802 12.5606 104.802 13.4886V14.3196H95.5908V12.4446H101.954C101.954 12.009 101.86 11.6231 101.67 11.2869C101.481 10.9508 101.218 10.688 100.882 10.4986C100.551 10.3045 100.165 10.2074 99.7244 10.2074C99.2651 10.2074 98.8579 10.3139 98.5028 10.527C98.1524 10.7353 97.8778 11.017 97.6789 11.3722C97.48 11.7225 97.3782 12.1132 97.3735 12.544V14.3267C97.3735 14.8665 97.4729 15.3329 97.6718 15.7259C97.8754 16.1188 98.1619 16.4219 98.5312 16.6349C98.9005 16.848 99.3385 16.9545 99.8451 16.9545C100.181 16.9545 100.489 16.9072 100.768 16.8125C101.048 16.7178 101.287 16.5758 101.486 16.3864C101.685 16.197 101.836 15.965 101.94 15.6903L104.739 15.875C104.597 16.5473 104.305 17.1345 103.865 17.6364C103.429 18.1335 102.866 18.5218 102.175 18.8011C101.488 19.0758 100.695 19.2131 99.7954 19.2131ZM110.002 12.6932V19H106.977V8.09091H109.86V10.0156H109.988C110.23 9.38116 110.635 8.87926 111.203 8.50994C111.771 8.13589 112.46 7.94886 113.27 7.94886C114.027 7.94886 114.688 8.11458 115.251 8.44602C115.815 8.77746 116.252 9.25095 116.565 9.86648C116.877 10.4773 117.034 11.2064 117.034 12.054V19H114.008V12.5938C114.013 11.9261 113.842 11.4053 113.497 11.0312C113.151 10.6525 112.675 10.4631 112.069 10.4631C111.662 10.4631 111.302 10.5507 110.99 10.7259C110.682 10.901 110.44 11.1567 110.265 11.4929C110.095 11.8243 110.007 12.2244 110.002 12.6932ZM125.421 8.09091V10.3636H118.851V8.09091H125.421ZM120.343 5.47727H123.368V15.6477C123.368 15.9271 123.411 16.1449 123.496 16.3011C123.581 16.4527 123.7 16.5592 123.851 16.6207C124.008 16.6823 124.187 16.7131 124.391 16.7131C124.533 16.7131 124.675 16.7012 124.817 16.6776C124.959 16.6491 125.068 16.6278 125.144 16.6136L125.62 18.8651C125.468 18.9124 125.255 18.9669 124.981 19.0284C124.706 19.0947 124.372 19.1349 123.979 19.1491C123.25 19.1776 122.611 19.0805 122.062 18.858C121.517 18.6354 121.093 18.2898 120.79 17.821C120.487 17.3523 120.338 16.7604 120.343 16.0455V5.47727ZM136.532 11.2017L133.762 11.3722C133.715 11.1354 133.613 10.9223 133.456 10.733C133.3 10.5388 133.094 10.3849 132.839 10.2713C132.588 10.1529 132.287 10.0938 131.937 10.0938C131.468 10.0938 131.072 10.1932 130.75 10.392C130.429 10.5862 130.268 10.8466 130.268 11.1733C130.268 11.4337 130.372 11.6539 130.58 11.8338C130.788 12.0137 131.146 12.1581 131.652 12.267L133.627 12.6648C134.688 12.8826 135.478 13.233 135.999 13.7159C136.52 14.1989 136.78 14.8333 136.78 15.6193C136.78 16.3343 136.57 16.9616 136.148 17.5014C135.732 18.0412 135.159 18.4626 134.429 18.7656C133.705 19.0639 132.869 19.2131 131.922 19.2131C130.478 19.2131 129.328 18.9124 128.471 18.3111C127.618 17.705 127.119 16.8812 126.972 15.8395L129.948 15.6832C130.038 16.1236 130.256 16.4598 130.601 16.6918C130.947 16.919 131.39 17.0327 131.929 17.0327C132.46 17.0327 132.886 16.9309 133.208 16.7273C133.535 16.5189 133.7 16.2514 133.705 15.9247C133.7 15.6501 133.584 15.4252 133.357 15.25C133.13 15.0701 132.779 14.9328 132.306 14.8381L130.417 14.4616C129.351 14.2486 128.558 13.8793 128.037 13.3537C127.521 12.8281 127.263 12.1581 127.263 11.3438C127.263 10.643 127.453 10.0393 127.831 9.53267C128.215 9.02604 128.752 8.63542 129.444 8.3608C130.14 8.08617 130.954 7.94886 131.887 7.94886C133.265 7.94886 134.349 8.24006 135.14 8.82244C135.935 9.40483 136.399 10.1979 136.532 11.2017Z" fill="#044745"/>
<path d="M8.33097 30.2173H6.73722C6.69176 29.956 6.60795 29.7244 6.4858 29.5227C6.36364 29.3182 6.21165 29.1449 6.02983 29.0028C5.84801 28.8608 5.64063 28.7543 5.40767 28.6832C5.17756 28.6094 4.92898 28.5724 4.66193 28.5724C4.1875 28.5724 3.76705 28.6918 3.40057 28.9304C3.03409 29.1662 2.74716 29.5128 2.53977 29.9702C2.33239 30.4247 2.22869 30.9801 2.22869 31.6364C2.22869 32.304 2.33239 32.8665 2.53977 33.3239C2.75 33.7784 3.03693 34.1222 3.40057 34.3551C3.76705 34.5852 4.18608 34.7003 4.65767 34.7003C4.91903 34.7003 5.16335 34.6662 5.39062 34.598C5.62074 34.527 5.8267 34.4233 6.00852 34.2869C6.19318 34.1506 6.34801 33.983 6.47301 33.7841C6.60085 33.5852 6.68892 33.358 6.73722 33.1023L8.33097 33.1108C8.27131 33.5256 8.14205 33.9148 7.94318 34.2784C7.74716 34.642 7.49006 34.9631 7.17188 35.2415C6.85369 35.517 6.48153 35.733 6.0554 35.8892C5.62926 36.0426 5.15625 36.1193 4.63636 36.1193C3.86932 36.1193 3.18466 35.9418 2.58239 35.5866C1.98011 35.2315 1.50568 34.7188 1.15909 34.0483C0.8125 33.3778 0.639205 32.5739 0.639205 31.6364C0.639205 30.696 0.81392 29.892 1.16335 29.2244C1.51278 28.554 1.98864 28.0412 2.59091 27.6861C3.19318 27.331 3.875 27.1534 4.63636 27.1534C5.12216 27.1534 5.57386 27.2216 5.99148 27.358C6.40909 27.4943 6.78125 27.6946 7.10795 27.9588C7.43466 28.2202 7.70313 28.5412 7.91335 28.9219C8.12642 29.2997 8.26563 29.7315 8.33097 30.2173ZM11.5941 36.1321C11.1793 36.1321 10.8058 36.0582 10.4734 35.9105C10.1438 35.7599 9.88246 35.5384 9.68928 35.2457C9.49893 34.9531 9.40376 34.5923 9.40376 34.1634C9.40376 33.794 9.47195 33.4886 9.60831 33.2472C9.74467 33.0057 9.93075 32.8125 10.1665 32.6676C10.4023 32.5227 10.668 32.4134 10.9634 32.3395C11.2617 32.2628 11.57 32.2074 11.8881 32.1733C12.2717 32.1335 12.5827 32.098 12.8214 32.0668C13.06 32.0327 13.2333 31.9815 13.3413 31.9134C13.4521 31.8423 13.5075 31.733 13.5075 31.5852V31.5597C13.5075 31.2386 13.4123 30.9901 13.2219 30.8139C13.0316 30.6378 12.7575 30.5497 12.3995 30.5497C12.0217 30.5497 11.7219 30.6321 11.5004 30.7969C11.2816 30.9616 11.1339 31.1562 11.0572 31.3807L9.61683 31.1761C9.73047 30.7784 9.91797 30.446 10.1793 30.179C10.4407 29.9091 10.7603 29.7074 11.1381 29.5739C11.516 29.4375 11.9336 29.3693 12.391 29.3693C12.7063 29.3693 13.0202 29.4062 13.3327 29.4801C13.6452 29.554 13.9308 29.6761 14.1893 29.8466C14.4478 30.0142 14.6552 30.2429 14.8114 30.5327C14.9705 30.8224 15.0501 31.1847 15.0501 31.6193V36H13.5671V35.1009H13.516C13.4222 35.2827 13.2901 35.4531 13.1197 35.6122C12.9521 35.7685 12.7404 35.8949 12.4847 35.9915C12.2319 36.0852 11.935 36.1321 11.5941 36.1321ZM11.9947 34.9986C12.3043 34.9986 12.5728 34.9375 12.8001 34.8153C13.0273 34.6903 13.2021 34.5256 13.3242 34.321C13.4492 34.1165 13.5117 33.8935 13.5117 33.652V32.8807C13.4634 32.9205 13.381 32.9574 13.2646 32.9915C13.1509 33.0256 13.0231 33.0554 12.881 33.081C12.739 33.1065 12.5984 33.1293 12.4592 33.1491C12.32 33.169 12.1992 33.1861 12.0969 33.2003C11.8668 33.2315 11.6609 33.2827 11.479 33.3537C11.2972 33.4247 11.1538 33.5241 11.0487 33.652C10.9435 33.777 10.891 33.9389 10.891 34.1378C10.891 34.4219 10.9947 34.6364 11.2021 34.7812C11.4094 34.9261 11.6737 34.9986 11.9947 34.9986ZM18.1438 32.1648V36H16.6012V29.4545H18.0756V30.5668H18.1523C18.3029 30.2003 18.543 29.9091 18.8725 29.6932C19.2049 29.4773 19.6154 29.3693 20.104 29.3693C20.5558 29.3693 20.9492 29.4659 21.2844 29.6591C21.6225 29.8523 21.8839 30.1321 22.0685 30.4986C22.256 30.8651 22.3484 31.3097 22.3455 31.8324V36H20.8029V32.071C20.8029 31.6335 20.6893 31.2912 20.462 31.044C20.2376 30.7969 19.9265 30.6733 19.5288 30.6733C19.2589 30.6733 19.0188 30.733 18.8086 30.8523C18.6012 30.9687 18.4379 31.1378 18.3185 31.3594C18.2021 31.581 18.1438 31.8494 18.1438 32.1648ZM26.3427 36.1151C25.8285 36.1151 25.3683 35.983 24.962 35.7188C24.5558 35.4545 24.2347 35.071 23.9989 34.5682C23.7631 34.0653 23.6452 33.4545 23.6452 32.7358C23.6452 32.0085 23.7646 31.3949 24.0032 30.8949C24.2447 30.392 24.57 30.0128 24.979 29.7571C25.3881 29.4986 25.8441 29.3693 26.3469 29.3693C26.7305 29.3693 27.0458 29.4347 27.293 29.5653C27.5401 29.6932 27.7362 29.848 27.881 30.0298C28.0259 30.2088 28.1381 30.3778 28.2177 30.5369H28.2816V27.2727H29.8285V36H28.3114V34.9688H28.2177C28.1381 35.1278 28.0231 35.2969 27.8725 35.4759C27.7219 35.652 27.5231 35.8026 27.2759 35.9276C27.0288 36.0526 26.7177 36.1151 26.3427 36.1151ZM26.7731 34.8494C27.0998 34.8494 27.3782 34.7614 27.6083 34.5852C27.8384 34.4062 28.0131 34.1577 28.1325 33.8395C28.2518 33.5213 28.3114 33.1506 28.3114 32.7273C28.3114 32.304 28.2518 31.9361 28.1325 31.6236C28.016 31.3111 27.8427 31.0682 27.6126 30.8949C27.3853 30.7216 27.1055 30.6349 26.7731 30.6349C26.4293 30.6349 26.1424 30.7244 25.9123 30.9034C25.6822 31.0824 25.5089 31.3295 25.3924 31.6449C25.2759 31.9602 25.2177 32.321 25.2177 32.7273C25.2177 33.1364 25.2759 33.5014 25.3924 33.8224C25.5117 34.1406 25.6864 34.392 25.9165 34.5767C26.1495 34.7585 26.435 34.8494 26.7731 34.8494ZM31.4723 36V29.4545H33.0149V36H31.4723ZM32.2479 28.5256C32.0036 28.5256 31.7933 28.4446 31.6172 28.2827C31.4411 28.1179 31.353 27.9205 31.353 27.6903C31.353 27.4574 31.4411 27.2599 31.6172 27.098C31.7933 26.9332 32.0036 26.8509 32.2479 26.8509C32.495 26.8509 32.7053 26.9332 32.8786 27.098C33.0547 27.2599 33.1428 27.4574 33.1428 27.6903C33.1428 27.9205 33.0547 28.1179 32.8786 28.2827C32.7053 28.4446 32.495 28.5256 32.2479 28.5256ZM37.0302 36.1151C36.516 36.1151 36.0558 35.983 35.6495 35.7188C35.2433 35.4545 34.9222 35.071 34.6864 34.5682C34.4506 34.0653 34.3327 33.4545 34.3327 32.7358C34.3327 32.0085 34.4521 31.3949 34.6907 30.8949C34.9322 30.392 35.2575 30.0128 35.6665 29.7571C36.0756 29.4986 36.5316 29.3693 37.0344 29.3693C37.418 29.3693 37.7333 29.4347 37.9805 29.5653C38.2276 29.6932 38.4237 29.848 38.5685 30.0298C38.7134 30.2088 38.8256 30.3778 38.9052 30.5369H38.9691V27.2727H40.516V36H38.9989V34.9688H38.9052C38.8256 35.1278 38.7106 35.2969 38.56 35.4759C38.4094 35.652 38.2106 35.8026 37.9634 35.9276C37.7163 36.0526 37.4052 36.1151 37.0302 36.1151ZM37.4606 34.8494C37.7873 34.8494 38.0657 34.7614 38.2958 34.5852C38.5259 34.4062 38.7006 34.1577 38.82 33.8395C38.9393 33.5213 38.9989 33.1506 38.9989 32.7273C38.9989 32.304 38.9393 31.9361 38.82 31.6236C38.7035 31.3111 38.5302 31.0682 38.3001 30.8949C38.0728 30.7216 37.793 30.6349 37.4606 30.6349C37.1168 30.6349 36.8299 30.7244 36.5998 30.9034C36.3697 31.0824 36.1964 31.3295 36.0799 31.6449C35.9634 31.9602 35.9052 32.321 35.9052 32.7273C35.9052 33.1364 35.9634 33.5014 36.0799 33.8224C36.1992 34.1406 36.3739 34.392 36.604 34.5767C36.837 34.7585 37.1225 34.8494 37.4606 34.8494ZM44.0433 36.1321C43.6286 36.1321 43.255 36.0582 42.9226 35.9105C42.593 35.7599 42.3317 35.5384 42.1385 35.2457C41.9482 34.9531 41.853 34.5923 41.853 34.1634C41.853 33.794 41.9212 33.4886 42.0575 33.2472C42.1939 33.0057 42.38 32.8125 42.6158 32.6676C42.8516 32.5227 43.1172 32.4134 43.4126 32.3395C43.7109 32.2628 44.0192 32.2074 44.3374 32.1733C44.7209 32.1335 45.032 32.098 45.2706 32.0668C45.5092 32.0327 45.6825 31.9815 45.7905 31.9134C45.9013 31.8423 45.9567 31.733 45.9567 31.5852V31.5597C45.9567 31.2386 45.8615 30.9901 45.6712 30.8139C45.4808 30.6378 45.2067 30.5497 44.8487 30.5497C44.4709 30.5497 44.1712 30.6321 43.9496 30.7969C43.7308 30.9616 43.5831 31.1562 43.5064 31.3807L42.0661 31.1761C42.1797 30.7784 42.3672 30.446 42.6286 30.179C42.8899 29.9091 43.2095 29.7074 43.5874 29.5739C43.9652 29.4375 44.3828 29.3693 44.8402 29.3693C45.1555 29.3693 45.4695 29.4062 45.782 29.4801C46.0945 29.554 46.38 29.6761 46.6385 29.8466C46.897 30.0142 47.1044 30.2429 47.2607 30.5327C47.4197 30.8224 47.4993 31.1847 47.4993 31.6193V36H46.0163V35.1009H45.9652C45.8714 35.2827 45.7393 35.4531 45.5689 35.6122C45.4013 35.7685 45.1896 35.8949 44.9339 35.9915C44.6811 36.0852 44.3842 36.1321 44.0433 36.1321ZM44.4439 34.9986C44.7536 34.9986 45.022 34.9375 45.2493 34.8153C45.4766 34.6903 45.6513 34.5256 45.7734 34.321C45.8984 34.1165 45.9609 33.8935 45.9609 33.652V32.8807C45.9126 32.9205 45.8303 32.9574 45.7138 32.9915C45.6001 33.0256 45.4723 33.0554 45.3303 33.081C45.1882 33.1065 45.0476 33.1293 44.9084 33.1491C44.7692 33.169 44.6484 33.1861 44.5462 33.2003C44.3161 33.2315 44.1101 33.2827 43.9283 33.3537C43.7464 33.4247 43.603 33.5241 43.4979 33.652C43.3928 33.777 43.3402 33.9389 43.3402 34.1378C43.3402 34.4219 43.4439 34.6364 43.6513 34.7812C43.8587 34.9261 44.1229 34.9986 44.4439 34.9986ZM52.3189 29.4545V30.6477H48.5561V29.4545H52.3189ZM49.4851 27.8864H51.0277V34.0312C51.0277 34.2386 51.0589 34.3977 51.1214 34.5085C51.1868 34.6165 51.272 34.6903 51.3771 34.7301C51.4822 34.7699 51.5987 34.7898 51.7266 34.7898C51.8232 34.7898 51.9112 34.7827 51.9908 34.7685C52.0732 34.7543 52.1357 34.7415 52.1783 34.7301L52.4382 35.9361C52.3558 35.9645 52.2379 35.9957 52.0845 36.0298C51.9339 36.0639 51.7493 36.0838 51.5305 36.0895C51.1442 36.1009 50.7962 36.0426 50.4865 35.9148C50.1768 35.7841 49.9311 35.5824 49.7493 35.3097C49.5703 35.0369 49.4822 34.696 49.4851 34.2869V27.8864ZM56.4364 36.1278C55.7802 36.1278 55.2134 35.9915 54.7362 35.7188C54.2617 35.4432 53.8967 35.054 53.641 34.5511C53.3853 34.0455 53.2575 33.4503 53.2575 32.7656C53.2575 32.0923 53.3853 31.5014 53.641 30.9929C53.8995 30.4815 54.2603 30.0838 54.7234 29.7997C55.1864 29.5128 55.7305 29.3693 56.3555 29.3693C56.7589 29.3693 57.1396 29.4347 57.4975 29.5653C57.8583 29.6932 58.1765 29.892 58.4521 30.1619C58.7305 30.4318 58.9492 30.7756 59.1083 31.1932C59.2674 31.608 59.3469 32.1023 59.3469 32.6761V33.1491H53.9819V32.1094H57.8683C57.8654 31.8139 57.8015 31.5511 57.6765 31.321C57.5515 31.0881 57.3768 30.9048 57.1523 30.7713C56.9308 30.6378 56.6722 30.571 56.3768 30.571C56.0614 30.571 55.7844 30.6477 55.5458 30.8011C55.3072 30.9517 55.1211 31.1506 54.9876 31.3977C54.8569 31.642 54.7901 31.9105 54.7873 32.2031V33.1108C54.7873 33.4915 54.8569 33.8182 54.9961 34.0909C55.1353 34.3608 55.3299 34.5682 55.5799 34.7131C55.8299 34.8551 56.1225 34.9261 56.4577 34.9261C56.6822 34.9261 56.8853 34.8949 57.0671 34.8324C57.2489 34.767 57.4066 34.6719 57.5401 34.5469C57.6737 34.4219 57.7745 34.267 57.8427 34.0824L59.283 34.2443C59.1921 34.625 59.0188 34.9574 58.7631 35.2415C58.5103 35.5227 58.1864 35.7415 57.7915 35.8977C57.3967 36.0511 56.945 36.1278 56.4364 36.1278ZM65.8253 31.1847L64.419 31.3381C64.3793 31.196 64.3097 31.0625 64.2102 30.9375C64.1136 30.8125 63.983 30.7116 63.8182 30.6349C63.6534 30.5582 63.4517 30.5199 63.2131 30.5199C62.892 30.5199 62.6222 30.5895 62.4034 30.7287C62.1875 30.8679 62.081 31.0483 62.0838 31.2699C62.081 31.4602 62.1506 31.6151 62.2926 31.7344C62.4375 31.8537 62.6761 31.9517 63.0085 32.0284L64.125 32.267C64.7443 32.4006 65.2045 32.6122 65.5057 32.902C65.8097 33.1918 65.9631 33.571 65.9659 34.0398C65.9631 34.4517 65.8423 34.8153 65.6037 35.1307C65.3679 35.4432 65.0398 35.6875 64.6193 35.8636C64.1989 36.0398 63.7159 36.1278 63.1705 36.1278C62.3693 36.1278 61.7244 35.9602 61.2358 35.625C60.7472 35.2869 60.456 34.8168 60.3622 34.2145L61.8665 34.0696C61.9347 34.3651 62.0795 34.5881 62.3011 34.7386C62.5227 34.8892 62.8111 34.9645 63.1662 34.9645C63.5327 34.9645 63.8267 34.8892 64.0483 34.7386C64.2727 34.5881 64.3849 34.402 64.3849 34.1804C64.3849 33.9929 64.3125 33.8381 64.1676 33.7159C64.0256 33.5937 63.804 33.5 63.5028 33.4347L62.3864 33.2003C61.7585 33.0696 61.294 32.8494 60.9929 32.5398C60.6918 32.2273 60.5426 31.8324 60.5455 31.3551C60.5426 30.9517 60.652 30.6023 60.8736 30.3068C61.098 30.0085 61.4091 29.7784 61.8068 29.6165C62.2074 29.4517 62.669 29.3693 63.1918 29.3693C63.9588 29.3693 64.5625 29.5327 65.0028 29.8594C65.446 30.1861 65.7202 30.6278 65.8253 31.1847Z" fill="#044745"/>
</svg>
