<svg width="48" height="48" viewBox="0 0 48 48" fill="none" xmlns="http://www.w3.org/2000/svg">
<path d="M25.8083 24.6345L24.0001 22.8263L22.1919 24.6345L22.7662 25.209V26.9364H25.2339V25.209L25.8083 24.6345Z" fill="#009483"/>
<path d="M32.0161 13.1535C32.0161 8.64775 28.3634 4.99536 23.8578 4.99536C19.3521 4.99536 15.6997 8.64775 15.6997 13.1535C15.6997 17.659 19.3521 21.3115 23.8578 21.3115C28.3634 21.3115 32.0161 17.659 32.0161 13.1535Z" fill="#009483"/>
<path d="M43.1012 41.1071C43.1208 41.1017 43.1403 41.0958 43.1598 41.0903C43.1901 41.0817 43.2203 41.0735 43.2503 41.0641C43.2715 41.0575 43.2927 41.0499 43.314 41.0427C43.3434 41.0327 43.3729 41.0231 43.4022 41.0124C43.4241 41.0041 43.4459 40.9953 43.4678 40.9864C43.4958 40.9755 43.524 40.9648 43.5515 40.9532C43.5737 40.9435 43.596 40.9328 43.6184 40.9229C43.6448 40.9109 43.6717 40.8991 43.698 40.8864C43.7198 40.8758 43.7416 40.8642 43.7634 40.8528C43.7896 40.8393 43.816 40.8265 43.8419 40.8119C43.8624 40.8009 43.8826 40.7886 43.9029 40.777C43.9297 40.7617 43.9565 40.7463 43.9828 40.7304C44.0014 40.7189 44.0198 40.7066 44.0383 40.6947C44.0659 40.677 44.0935 40.6593 44.1206 40.641C44.1375 40.6291 44.1543 40.6169 44.1711 40.605C44.1992 40.585 44.2269 40.5652 44.2544 40.5441C44.2703 40.5321 44.2861 40.5193 44.3022 40.5069C44.3293 40.4854 44.3562 40.4634 44.3828 40.4412C44.389 40.436 44.3956 40.4311 44.4021 40.4257C44.4124 40.4167 44.422 40.4074 44.4322 40.3985C44.4562 40.3777 44.48 40.3563 44.5032 40.3348C44.5219 40.3174 44.5405 40.2997 44.5589 40.2817C44.5779 40.2633 44.597 40.2444 44.6154 40.2254C44.6367 40.2037 44.6575 40.1822 44.6781 40.1601C44.6926 40.1444 44.707 40.1286 44.7211 40.1126C44.7441 40.0868 44.7666 40.0612 44.7885 40.0347C44.7997 40.0216 44.8105 40.0084 44.8213 39.9951C44.845 39.966 44.8682 39.9367 44.8905 39.907C44.8994 39.8953 44.908 39.8834 44.9169 39.8716C44.9398 39.8403 44.9624 39.8089 44.9842 39.7768C44.9924 39.765 45.0004 39.7527 45.0084 39.7406C45.0295 39.7085 45.0502 39.6767 45.0701 39.6444C45.0789 39.6301 45.0874 39.6157 45.0961 39.6009C45.1141 39.5708 45.1318 39.5403 45.1489 39.5097C45.1592 39.491 45.169 39.4717 45.1791 39.4527C45.193 39.4261 45.2071 39.3993 45.2204 39.3721C45.2324 39.3473 45.2441 39.3227 45.2554 39.2973C45.2656 39.2757 45.2759 39.2537 45.2853 39.2318C45.2988 39.201 45.3113 39.1699 45.3237 39.1388C45.3304 39.1218 45.3373 39.1051 45.3436 39.0883C45.3574 39.0523 45.3699 39.0163 45.3823 38.9797C45.3866 38.9666 45.3913 38.954 45.3955 38.941C45.4082 38.9019 45.42 38.8623 45.4315 38.8225C45.4346 38.8115 45.4378 38.8009 45.4407 38.7899C45.4517 38.7496 45.4618 38.7089 45.4712 38.6682C45.4738 38.657 45.4765 38.6458 45.479 38.6345C45.4877 38.5953 45.4955 38.5558 45.5028 38.5161C45.5053 38.5021 45.5079 38.4882 45.5103 38.4743C45.5166 38.4378 45.5219 38.401 45.527 38.3641C45.5294 38.3459 45.5316 38.3278 45.534 38.3097C45.5377 38.2769 45.5411 38.2441 45.544 38.211C45.5461 38.1876 45.5478 38.1641 45.5496 38.1404C45.5514 38.112 45.5531 38.0836 45.5542 38.055C45.5554 38.0263 45.556 37.9979 45.5566 37.9693C45.5568 37.9538 45.5577 37.9383 45.5577 37.9229C45.5577 37.9132 45.5571 37.9038 45.5571 37.8942C45.5568 37.8631 45.5559 37.8323 45.5547 37.8013C45.554 37.7775 45.5532 37.7536 45.5518 37.7301C45.5502 37.6998 45.5477 37.6694 45.545 37.6391C45.543 37.6146 45.541 37.5901 45.5386 37.5657C45.5355 37.5376 45.5317 37.5095 45.5279 37.4816C45.5244 37.4553 45.5213 37.4292 45.5171 37.4034C45.5133 37.3777 45.5082 37.3524 45.5034 37.327C45.4983 37.299 45.4937 37.2708 45.4877 37.243C45.4829 37.2199 45.4772 37.197 45.4718 37.1739C45.4649 37.1445 45.4585 37.1148 45.451 37.0857C45.4451 37.0638 45.4383 37.0419 45.4323 37.0199C45.4238 36.9901 45.4158 36.9605 45.4065 36.9311C45.3996 36.9088 45.3915 36.8869 45.384 36.8647C45.3745 36.8361 45.3653 36.8076 45.3547 36.7793C45.346 36.7561 45.3367 36.7332 45.3274 36.7099C45.317 36.6836 45.3068 36.6566 45.2956 36.6302C45.2855 36.6066 45.2743 36.583 45.2637 36.5594C45.2522 36.5341 45.2411 36.5086 45.2292 36.4839C45.2177 36.4605 45.2054 36.4374 45.1936 36.4141C45.1807 36.3895 45.1684 36.3645 45.1549 36.3402C45.1428 36.3183 45.1298 36.2966 45.1173 36.2746C45.1028 36.2494 45.0885 36.2244 45.0735 36.1993C45.061 36.1793 45.0477 36.1597 45.0349 36.1399C45.0182 36.1135 45.0015 36.0875 44.984 36.062C44.9713 36.0433 44.9581 36.0255 44.9452 36.0071C44.9264 35.9807 44.9074 35.9544 44.8878 35.9284C44.8745 35.9109 44.8605 35.8937 44.8466 35.8763C44.8264 35.8508 44.8062 35.8253 44.7853 35.8002C44.7795 35.7935 44.7741 35.7861 44.7681 35.7793L34.2467 23.458C33.5931 22.6927 32.6647 22.3023 31.7313 22.3045V26.8728H33.1484C34.0772 26.8728 34.8331 27.6286 34.8331 28.5574V35.7433C35.7404 36.3105 36.3443 37.3178 36.3443 38.4666C36.3443 39.5615 35.7959 40.5277 34.9592 41.1069H33.1888C33.709 40.9806 34.0958 40.5129 34.0958 39.954V28.8404C34.0958 28.1844 33.5639 27.6525 32.9079 27.6525H15.0921C14.4361 27.6525 13.9044 28.1843 13.9044 28.8404V39.9541C13.9044 40.5129 14.291 40.9806 14.8111 41.107H13.0408C12.2041 40.5277 11.6556 39.5615 11.6556 38.4667C11.6556 37.3179 12.2596 36.3105 13.1669 35.7434V28.5574C13.1669 27.6288 13.9225 26.8728 14.8514 26.8728H16.2686V22.2994H16.1262V22.3061C15.2414 22.342 14.3735 22.7317 13.7532 23.458L3.23205 35.7799C3.22623 35.7866 3.22083 35.7939 3.21508 35.8008C3.19421 35.8258 3.17382 35.8513 3.15349 35.8768C3.13981 35.8943 3.1259 35.9115 3.11253 35.9289C3.09291 35.955 3.07396 35.9811 3.05519 36.0076C3.04206 36.026 3.02886 36.0438 3.01627 36.0626C2.99876 36.088 2.98203 36.114 2.9653 36.1404C2.95246 36.1603 2.93933 36.1799 2.92697 36.1998C2.91186 36.2249 2.89747 36.25 2.88295 36.2752C2.87036 36.2971 2.85735 36.3188 2.84535 36.3408C2.83204 36.365 2.81962 36.3901 2.80691 36.4146C2.79498 36.4379 2.78256 36.461 2.77111 36.4844C2.75923 36.5092 2.74814 36.5347 2.73668 36.5599C2.72583 36.5835 2.71473 36.6071 2.7046 36.6308C2.69338 36.6572 2.68337 36.6841 2.67275 36.7105C2.6637 36.7339 2.65404 36.7567 2.64547 36.7798C2.63509 36.8082 2.6258 36.8366 2.61614 36.8653C2.60864 36.8874 2.60079 36.9094 2.59365 36.9317C2.58448 36.961 2.57632 36.9907 2.56792 37.0204C2.56169 37.0423 2.55497 37.0643 2.54927 37.0862C2.54172 37.1152 2.53512 37.1449 2.52834 37.1745C2.52294 37.1977 2.51713 37.2206 2.51233 37.2436C2.50651 37.2715 2.50177 37.2997 2.49674 37.3275C2.492 37.353 2.48708 37.3783 2.48306 37.4039C2.47917 37.4297 2.47575 37.4558 2.47245 37.4821C2.46873 37.5102 2.46477 37.5383 2.46183 37.5663C2.45913 37.5905 2.45734 37.615 2.45524 37.6397C2.45278 37.6699 2.4502 37.7004 2.4484 37.7306C2.44714 37.7542 2.44642 37.778 2.44558 37.8019C2.4445 37.8328 2.44342 37.8636 2.4433 37.8947C2.44318 37.9042 2.44264 37.9136 2.44264 37.9234C2.44264 37.939 2.4436 37.9544 2.44378 37.9698C2.44426 37.9984 2.44498 38.0267 2.44606 38.0555C2.44726 38.0841 2.44888 38.1126 2.4508 38.1409C2.4523 38.1646 2.45422 38.1881 2.4562 38.2116C2.45914 38.2446 2.46255 38.2774 2.46633 38.3102C2.46861 38.3283 2.47095 38.3465 2.47335 38.3647C2.47839 38.4015 2.48396 38.4383 2.49008 38.4749C2.49242 38.4888 2.49506 38.5027 2.49758 38.5167C2.50489 38.5562 2.51263 38.5958 2.52139 38.635C2.52384 38.6464 2.52672 38.6577 2.52918 38.6687C2.53866 38.7096 2.54879 38.7501 2.55971 38.7905C2.56271 38.8014 2.56594 38.8121 2.569 38.823C2.58022 38.8629 2.59203 38.9023 2.60487 38.9415C2.60912 38.9546 2.61362 38.9672 2.61782 38.9802C2.63035 39.0168 2.64295 39.0529 2.65662 39.0888C2.66298 39.1055 2.66988 39.1223 2.67647 39.1393C2.68895 39.1705 2.70148 39.2016 2.71479 39.2323C2.72445 39.2542 2.73458 39.2761 2.74466 39.2978C2.75623 39.3232 2.76769 39.3479 2.7798 39.3726C2.79306 39.3998 2.80709 39.4265 2.82112 39.4532C2.83114 39.4722 2.84109 39.4915 2.85141 39.5102C2.86826 39.541 2.88607 39.5714 2.904 39.6015C2.91264 39.6161 2.92116 39.6305 2.93003 39.645C2.94982 39.6772 2.97069 39.7091 2.9918 39.7412C2.99978 39.7531 3.00775 39.7654 3.01585 39.7773C3.03774 39.8094 3.06041 39.8408 3.08344 39.8721C3.0922 39.8839 3.10083 39.8959 3.10965 39.9076C3.13208 39.9373 3.15528 39.9665 3.17903 39.9956C3.18989 40.0091 3.20062 40.0222 3.2116 40.0353C3.23367 40.0616 3.25616 40.0874 3.27907 40.1132C3.29334 40.1292 3.30767 40.1449 3.32213 40.1606C3.34264 40.1827 3.36339 40.2042 3.38462 40.2259C3.40327 40.2449 3.42228 40.2639 3.44129 40.2822C3.4597 40.3002 3.47805 40.3179 3.497 40.3354C3.52033 40.3568 3.54408 40.3783 3.56813 40.399C3.57838 40.408 3.58792 40.4172 3.59818 40.4262C3.60471 40.4316 3.61119 40.4365 3.61755 40.4417C3.64399 40.4639 3.67092 40.4858 3.69827 40.5074C3.71398 40.5198 3.72987 40.5326 3.74589 40.5446C3.77317 40.5658 3.80112 40.5855 3.82907 40.6056C3.84592 40.6173 3.86259 40.6295 3.87974 40.6415C3.90673 40.6599 3.9342 40.6776 3.96184 40.6952C3.98025 40.707 3.99867 40.7193 4.01738 40.731C4.04358 40.747 4.07045 40.7622 4.09714 40.7776C4.11753 40.7891 4.13774 40.8014 4.15825 40.8125C4.18416 40.8269 4.21049 40.8398 4.23675 40.8533C4.25846 40.8646 4.28011 40.8763 4.30212 40.8869C4.32833 40.8996 4.35508 40.9114 4.38176 40.9234C4.40407 40.9333 4.42626 40.944 4.44869 40.9537C4.47616 40.9651 4.50423 40.9761 4.53211 40.9869C4.55406 40.9957 4.57589 41.0046 4.59784 41.013C4.62699 41.0236 4.65655 41.0332 4.68606 41.0433C4.70729 41.0505 4.7284 41.0581 4.74987 41.0646C4.77962 41.074 4.80984 41.0822 4.84019 41.0909C4.85968 41.0965 4.87917 41.1023 4.89884 41.1076H0V43.005H48V41.1076H43.1012V41.1071Z" fill="#009483"/>
</svg>
